<svg width="620" height="250" version="1.1" xmlns="http://www.w3.org/2000/svg" desc="Created with imagetracer.js version 1.2.6" ><path fill="rgb(208,205,181)" stroke="rgb(208,205,181)" stroke-width="1" opacity="0.996078431372549" d="M 122.5 21 Q 124.8 20.3 124 22.5 L 126 26.5 L 130 57 L 118 57 L 118 51.5 L 121 35.5 L 121 22.5 L 122.5 21 Z " /><path fill="rgb(208,205,181)" stroke="rgb(208,205,181)" stroke-width="1" opacity="0.996078431372549" d="M 321.5 44 L 323 44.5 L 323 71.5 L 324.5 71 Q 329.2 65.2 341.5 67 L 352 75.5 Q 355.7 81.3 354 92.5 L 346.5 103 Q 341 108.5 329.5 108 L 317 104 Q 318.3 107 314.5 106 Q 311.8 104.8 314 103.5 L 314 51.5 L 312.5 51 L 308 49 Q 306.9 45.5 314.5 47 L 321.5 44 Z M 331 71 L 325 74 L 323 75 L 323 99 Q 326 103 332 104 L 339 103 Q 343 99 345 93 Q 346 83 343 78 Q 340 71 331 71 Z " /><path fill="rgb(208,205,181)" stroke="rgb(208,205,181)" stroke-width="1" opacity="0.996078431372549" d="M 460.5 44 L 461 46.5 L 460 47.5 L 460 101.5 L 466 105.5 Q 465.3 107.8 461.5 107 L 460.5 106 L 450.5 106 L 447.5 107 Q 444.5 105.5 447.5 104 Q 451.5 104.5 452 101.5 L 452 52.5 L 449.5 50 L 446 48.5 L 447.5 47 Q 456.4 47.9 460.5 44 Z " /><path fill="rgb(208,205,181)" stroke="rgb(208,205,181)" stroke-width="1" opacity="0.996078431372549" d="M 102.5 46 Q 107 45 108 47.5 L 106.5 50 Q 75.3 58.3 58 80.5 L 49 93.5 L 44 105.5 L 41 118 Q 37.2 119 36 116.5 Q 38.5 98 47 85.5 Q 55.9 71.9 68.5 62 L 84.5 52 L 102.5 46 Z " /><path fill="rgb(208,205,181)" stroke="rgb(208,205,181)" stroke-width="1" opacity="0.996078431372549" d="M 137 46 L 147.5 47 L 166.5 55 Q 180 63 190 74.5 L 204 96.5 L 210 116.5 Q 209.3 118.8 205.5 118 L 204 116.5 L 199 99.5 L 192 86.5 L 175.5 68 L 162.5 59 L 151.5 54 L 139.5 51 L 137 48.5 L 137 46 Z " /><path fill="rgb(208,205,181)" stroke="rgb(208,205,181)" stroke-width="1" opacity="0.996078431372549" d="M 276.5 49 Q 280.3 48.3 281 50.5 L 298 94.5 L 304.5 104 L 307 105.5 Q 306 108 301.5 107 Q 300.2 104.8 295.5 106 Q 294.3 108.3 289.5 107 L 286 105.5 L 291 102.5 L 290 96.5 L 286 87 L 264.5 87 L 264 88.5 L 260 97.5 L 260 102.5 L 266 105.5 Q 266.9 108.9 261.5 107 L 260.5 106 L 252.5 106 L 250.5 107 L 247 105.5 L 254 100.5 L 269 63.5 L 276.5 49 Z M 274 61 L 266 83 L 268 85 L 273 84 L 284 85 Q 282 74 276 65 Q 277 60 274 61 Z " /><path fill="rgb(208,205,181)" stroke="rgb(208,205,181)" stroke-width="1" opacity="0.996078431372549" d="M 530.5 56 Q 533.5 55.1 532 59.5 L 533 60.5 L 533 68 L 545 68 L 545 72 L 533 72 L 533 100.5 Q 534.8 103.8 541.5 102 Q 542.8 99.8 544 102.5 Q 540.7 108.2 531.5 108 L 526 104.5 L 524 100.5 L 524 72 L 518.5 72 L 518 70.5 L 527 63.5 L 530.5 56 Z " /><path fill="rgb(208,205,181)" stroke="rgb(208,205,181)" stroke-width="1" opacity="0.996078431372549" d="M 370.5 67 Q 382.7 65.7 389 69 L 388.5 79 L 383.5 72 Q 380.6 68.4 372.5 70 L 369 72.5 L 368 74.5 L 369 77.5 Q 368.3 79.8 370.5 79 L 374.5 82 L 388.5 87 L 391 89.5 L 393 95.5 Q 391.9 102.9 386.5 106 Q 381.5 109 372.5 108 L 367.5 107 L 362 104 L 361 94 Q 363.7 92.9 363 95.5 L 368.5 102 Q 371.7 105.8 379.5 105 L 385 101.5 L 386 98.5 L 382.5 94 L 371.5 90 L 363 84.5 Q 360.7 81.3 362 74.5 L 364.5 71 L 370.5 67 Z " /><path fill="rgb(208,205,181)" stroke="rgb(208,205,181)" stroke-width="1" opacity="0.996078431372549" d="M 414.5 67 Q 431.7 64.8 438 73.5 L 443 82.5 L 443 91.5 L 436.5 102 Q 430.8 108.8 417.5 108 Q 405.9 106.1 401 97.5 Q 398 92.5 399 83.5 Q 400.7 75.2 406.5 71 L 414.5 67 Z M 417 70 L 415 71 L 411 75 L 408 84 Q 408 94 412 100 L 421 105 L 429 103 L 432 100 L 434 93 L 434 86 L 431 77 L 424 70 L 417 70 Z " /><path fill="rgb(208,205,181)" stroke="rgb(208,205,181)" stroke-width="1" opacity="0.996078431372549" d="M 480.5 67 L 483 67.5 L 483 96.5 L 485.5 101 L 491.5 103 L 501 98.5 L 502 96.5 L 502 75.5 L 498.5 71 L 496 70.5 L 497.5 69 L 509.5 67 L 511 68.5 L 511 81.5 L 510 82.5 L 510 96.5 L 511 98.5 L 511 100.5 Q 510.5 104.5 513.5 105 L 516 105.5 L 514.5 107 L 504.5 107 Q 501.3 105.8 502 102 L 492.5 107 L 484.5 108 L 477 105 L 474 98.5 L 474 73.5 L 471.5 71 Q 467.8 72 469 69 Q 476.3 70 480.5 67 Z " /><path fill="rgb(208,205,181)" stroke="rgb(208,205,181)" stroke-width="1" opacity="0.996078431372549" d="M 563.5 67 L 573.5 67 L 582 72 L 585 79.5 L 585 84 L 558.5 84 L 558 84.5 L 558 92.5 Q 559.4 98.6 564.5 101 Q 568.3 103.7 576.5 102 L 583 97.5 L 584.5 95 L 585 98.5 L 580.5 104 L 571.5 108 L 564.5 108 Q 556.2 106.3 552 100.5 Q 546.8 94.7 549 81.5 Q 551.6 74.1 557.5 70 L 563.5 67 Z M 568 69 L 563 71 L 557 81 L 576 81 L 575 74 Q 573 69 568 69 Z " /><path fill="rgb(208,205,181)" stroke="rgb(208,205,181)" stroke-width="1" opacity="0.996078431372549" d="M 166.5 81 L 167 84.5 L 134.5 147 L 129.5 148 L 128 145.5 L 133 141.5 L 135 131.5 L 132 123 L 124.5 119 L 115.5 119 L 107 125.5 L 104.5 130 L 103 118 L 166.5 81 Z " /><path fill="rgb(208,205,181)" stroke="rgb(208,205,181)" stroke-width="1" opacity="0.996078431372549" d="M 46.5 125 L 48 126.5 L 48 137 L 21.5 134 L 20.5 133 L 13.5 133 L 12 131.5 L 13.5 129 L 25.5 128 L 26.5 127 L 45.5 126 L 46.5 125 Z " /><path fill="rgb(208,205,181)" stroke="rgb(208,205,181)" stroke-width="1" opacity="0.996078431372549" d="M 119.5 125 L 126 128 Q 128.6 130.3 128 136.5 Q 125.8 141.8 118.5 142 L 112 137.5 L 111 132.5 L 114 127 L 119.5 125 Z " /><path fill="rgb(208,205,181)" stroke="rgb(208,205,181)" stroke-width="1" opacity="0.996078431372549" d="M 197 126 L 227.5 128 L 232 130.5 L 229.5 133 L 197 137 L 197 126 Z " /><path fill="rgb(208,205,181)" stroke="rgb(208,205,181)" stroke-width="1" opacity="0.996078431372549" d="M 471.5 127 L 474 127 L 474 132.5 L 473 133.5 L 473 143.5 L 474 144.5 L 474 153.5 L 473 154.5 L 473 183.5 L 474 186 L 479 187 L 478.5 189 L 459.5 189 L 458.5 187 Q 463.3 186.8 465 183.5 L 465 136.5 L 464 133 L 460 132 Q 458.7 128.7 463.5 130 L 471.5 127 Z " /><path fill="rgb(208,205,181)" stroke="rgb(208,205,181)" stroke-width="1" opacity="0.996078431372549" d="M 98.5 132 L 109.5 147 L 120 151.5 L 109.5 159 L 98.5 164 L 75.5 178 Q 72.3 176.3 76 174.5 L 98.5 132 Z " /><path fill="rgb(208,205,181)" stroke="rgb(208,205,181)" stroke-width="1" opacity="0.996078431372549" d="M 249.5 132 L 252.5 133 L 297 133 L 297 144.5 L 295.5 146 L 290.5 138 Q 285.6 134.7 277 136 L 277 182.5 L 279.5 186 L 284 187 L 283.5 189 L 261.5 189 L 260.5 187 L 267 184.5 L 268 180.5 L 268 136 Q 255.2 133.9 251 141.5 L 248.5 146 L 248 133.5 L 249.5 132 Z " /><path fill="rgb(208,205,181)" stroke="rgb(208,205,181)" stroke-width="1" opacity="0.996078431372549" d="M 206.5 143 L 210 144.5 L 208 156.5 L 201 172.5 Q 191.9 187.4 178.5 198 L 160.5 209 L 146.5 214 L 138.5 215 L 137 211 L 153.5 206 L 170.5 197 L 189 179.5 L 200 161.5 L 204 146.5 L 206.5 143 Z " /><path fill="rgb(208,205,181)" stroke="rgb(208,205,181)" stroke-width="1" opacity="0.996078431372549" d="M 37.5 144 Q 41.3 143.3 42 145.5 Q 47.6 176.4 68.5 192 Q 78 201 91.5 206 L 97.5 207 L 108 211.5 Q 109.8 216.8 104.5 215 Q 89.7 212.3 78.5 206 Q 63.1 197.9 53 184.5 L 41 164.5 L 37 153.5 L 36 145.5 L 37.5 144 Z " /><path fill="rgb(208,205,181)" stroke="rgb(208,205,181)" stroke-width="1" opacity="0.996078431372549" d="M 313.5 149 L 315 149.5 L 315 158.5 L 316 158.5 L 321.5 151 L 331 150 L 332 153.5 L 329.5 159 L 322.5 155 L 319 157.5 L 315 162.5 L 315 183.5 L 316 186 L 320 187 L 319.5 189 L 300.5 189 L 301.5 187 Q 305.5 187.5 306 184.5 L 306 155.5 L 304.5 154 L 302 152.5 L 303.5 151 Q 310.5 152 313.5 149 Z " /><path fill="rgb(208,205,181)" stroke="rgb(208,205,181)" stroke-width="1" opacity="0.996078431372549" d="M 347.5 150 L 360.5 150 L 367 155.5 L 368 159.5 L 368 183.5 L 369 186 L 374 186.5 Q 371.5 191 363.5 190 L 358.5 186 Q 353.8 191.3 342.5 190 L 337 187 L 336 177.5 L 339.5 173 L 359 165.5 L 360 160.5 L 359 156.5 L 355.5 153 Q 348.8 151.3 347 154.5 L 345 162 Q 339.6 163.5 338 160.5 Q 337.3 154.3 341.5 153 L 347.5 150 Z M 356 170 L 348 173 Q 343 175 344 182 L 350 186 L 357 184 Q 360 184 359 180 L 359 178 L 359 170 L 356 170 Z " /><path fill="rgb(208,205,181)" stroke="rgb(208,205,181)" stroke-width="1" opacity="0.996078431372549" d="M 375.5 150 Q 379.3 152.7 387.5 151 L 393 150 L 391.5 153 L 388 155.5 L 398.5 179 L 407 160.5 L 408 154.5 L 404 151.5 Q 403.2 148.9 406.5 150 L 408.5 151 L 409.5 150 L 418 150 Q 419.1 152.7 416.5 152 L 412 157.5 L 397.5 190 L 394 188.5 L 380 157.5 L 375.5 152 L 374 151.5 L 375.5 150 Z " /><path fill="rgb(208,205,181)" stroke="rgb(208,205,181)" stroke-width="1" opacity="0.996078431372549" d="M 431.5 150 Q 447.6 147.4 452 156.5 Q 454.9 160.4 454 167 L 430.5 167 L 429.5 166 L 427 167 L 429 178.5 L 433.5 183 Q 437.1 185.9 444.5 185 L 452 181 L 453 177 Q 456 175.8 455 179.5 L 450.5 186 Q 445.5 191.5 433.5 190 Q 425.5 187.5 421 181.5 L 418 172.5 L 418 166.5 L 421 158.5 L 427.5 152 L 431.5 150 Z M 437 152 L 433 153 Q 428 156 427 163 Q 428 165 434 164 L 436 164 Q 443 165 446 163 L 443 154 L 437 152 Z " /><path fill="rgb(208,205,181)" stroke="rgb(208,205,181)" stroke-width="1" opacity="0.996078431372549" d="M 118.5 202 L 129 202 L 129 210.5 L 128 211.5 L 128 219.5 L 127 220.5 L 125 239 Q 120.9 240.7 122 236.5 L 121 235.5 L 119 210.5 L 117 203.5 L 118.5 202 Z " /><path fill="rgb(43,41,29)" stroke="rgb(43,41,29)" stroke-width="1" opacity="0.39215686274509803" d="M 122.5 20 L 125 21.5 L 126 23.5 L 124 22.5 Q 124.8 20.3 122.5 21 L 121 22.5 L 121 35.5 L 119.5 38 L 119 34.5 L 120 33.5 L 120 22.5 L 122.5 20 Z " /><path fill="rgb(43,41,29)" stroke="rgb(43,41,29)" stroke-width="1" opacity="0.39215686274509803" d="M 127.5 36 L 128 39.5 L 127 39.5 L 127.5 36 Z " /><path fill="rgb(43,41,29)" stroke="rgb(43,41,29)" stroke-width="1" opacity="0.39215686274509803" d="M 128.5 42 L 129 45.5 L 128 45.5 L 128.5 42 Z " /><path fill="rgb(43,41,29)" stroke="rgb(43,41,29)" stroke-width="1" opacity="0.39215686274509803" d="M 321.5 43 L 323 43.5 L 320.5 45 L 321.5 43 Z " /><path fill="rgb(43,41,29)" stroke="rgb(43,41,29)" stroke-width="1" opacity="0.39215686274509803" d="M 458 43 L 461 43.5 L 458 45 L 458 43 Z " /><path fill="rgb(43,41,29)" stroke="rgb(43,41,29)" stroke-width="1" opacity="0.39215686274509803" d="M 102.5 45 Q 108.6 43.8 108 46.5 L 106.5 46 L 98.5 47 L 98.5 46 L 102.5 45 Z " /><path fill="rgb(43,41,29)" stroke="rgb(43,41,29)" stroke-width="1" opacity="0.39215686274509803" d="M 138.5 45 L 142 45.5 L 138.5 46 L 138.5 45 Z " /><path fill="rgb(43,41,29)" stroke="rgb(43,41,29)" stroke-width="1" opacity="0.39215686274509803" d="M 315.5 45 L 318 45.5 L 310.5 47 L 310.5 46 L 315.5 45 Z " /><path fill="rgb(43,41,29)" stroke="rgb(43,41,29)" stroke-width="1" opacity="0.39215686274509803" d="M 461.5 45 L 462 46.5 L 461 47.5 L 461 101.5 L 464 103.5 L 462.5 104 L 460 101.5 L 460 47.5 L 461.5 45 Z " /><path fill="rgb(43,41,29)" stroke="rgb(43,41,29)" stroke-width="1" opacity="0.39215686274509803" d="M 143.5 46 L 147 46.5 L 143.5 47 L 143.5 46 Z " /><path fill="rgb(43,41,29)" stroke="rgb(43,41,29)" stroke-width="1" opacity="0.39215686274509803" d="M 449.5 46 L 454 46.5 L 449.5 47 L 449.5 46 Z " /><path fill="rgb(43,41,29)" stroke="rgb(43,41,29)" stroke-width="1" opacity="0.39215686274509803" d="M 136.5 47 L 140 51.5 L 136 48.5 L 136.5 47 Z " /><path fill="rgb(43,41,29)" stroke="rgb(43,41,29)" stroke-width="1" opacity="0.39215686274509803" d="M 445 47 L 447 47.5 L 446.5 49 L 448 49.5 L 445 50 L 445 47 Z " /><path fill="rgb(43,41,29)" stroke="rgb(43,41,29)" stroke-width="1" opacity="0.39215686274509803" d="M 129.5 48 Q 131.8 50.8 131 56.5 L 130 56.5 L 129.5 48 Z " /><path fill="rgb(43,41,29)" stroke="rgb(43,41,29)" stroke-width="1" opacity="0.39215686274509803" d="M 275.5 48 Q 280 47 281 49.5 L 279.5 49 L 274.5 50 L 275.5 48 Z " /><path fill="rgb(43,41,29)" stroke="rgb(43,41,29)" stroke-width="1" opacity="0.39215686274509803" d="M 307.5 48 L 310 49.5 L 308.5 50 L 307.5 48 Z " /><path fill="rgb(43,41,29)" stroke="rgb(43,41,29)" stroke-width="1" opacity="0.39215686274509803" d="M 107.5 49 L 106.5 51 L 102.5 52 L 102.5 51 L 107.5 49 Z " /><path fill="rgb(43,41,29)" stroke="rgb(43,41,29)" stroke-width="1" opacity="0.39215686274509803" d="M 313.5 51 L 314 97.5 L 313 97.5 L 313.5 51 Z " /><path fill="rgb(43,41,29)" stroke="rgb(43,41,29)" stroke-width="1" opacity="0.39215686274509803" d="M 99.5 52 L 101 52.5 L 83.5 60 L 83.5 59 L 99.5 52 Z " /><path fill="rgb(43,41,29)" stroke="rgb(43,41,29)" stroke-width="1" opacity="0.39215686274509803" d="M 144.5 52 L 150 54.5 L 148.5 54 Q 143.7 54 144.5 52 Z " /><path fill="rgb(43,41,29)" stroke="rgb(43,41,29)" stroke-width="1" opacity="0.39215686274509803" d="M 161.5 52 L 164 53.5 L 162.5 53 L 161.5 52 Z " /><path fill="rgb(43,41,29)" stroke="rgb(43,41,29)" stroke-width="1" opacity="0.39215686274509803" d="M 451.5 52 L 452 101.5 L 449 103.5 L 451 101.5 L 451.5 52 Z " /><path fill="rgb(43,41,29)" stroke="rgb(43,41,29)" stroke-width="1" opacity="0.39215686274509803" d="M 81.5 53 L 80.5 55 L 81.5 53 Z " /><path fill="rgb(43,41,29)" stroke="rgb(43,41,29)" stroke-width="1" opacity="0.39215686274509803" d="M 272 54 L 274 54.5 L 271.5 59 L 271 57.5 L 272 54 Z " /><path fill="rgb(43,41,29)" stroke="rgb(43,41,29)" stroke-width="1" opacity="0.39215686274509803" d="M 531.5 55 Q 533.8 55.8 533 59.5 L 532 59.5 L 531.5 55 Z " /><path fill="rgb(43,41,29)" stroke="rgb(43,41,29)" stroke-width="1" opacity="0.39215686274509803" d="M 76.5 56 L 78 56.5 L 74.5 58 L 74.5 57 L 76.5 56 Z " /><path fill="rgb(43,41,29)" stroke="rgb(43,41,29)" stroke-width="1" opacity="0.39215686274509803" d="M 168.5 56 L 171 57.5 L 169.5 57 L 168.5 56 Z " /><path fill="rgb(43,41,29)" stroke="rgb(43,41,29)" stroke-width="1" opacity="0.39215686274509803" d="M 157.5 57 L 161 58.5 L 159.5 59 L 157.5 57 Z " /><path fill="rgb(43,41,29)" stroke="rgb(43,41,29)" stroke-width="1" opacity="0.39215686274509803" d="M 72.5 59 L 71.5 61 L 69.5 62 L 70.5 60 L 72.5 59 Z " /><path fill="rgb(43,41,29)" stroke="rgb(43,41,29)" stroke-width="1" opacity="0.39215686274509803" d="M 527.5 60 L 528 61.5 L 526.5 64 L 526 62.5 L 527.5 60 Z " /><path fill="rgb(43,41,29)" stroke="rgb(43,41,29)" stroke-width="1" opacity="0.39215686274509803" d="M 80.5 61 L 79.5 63 L 80.5 61 Z " /><path fill="rgb(43,41,29)" stroke="rgb(43,41,29)" stroke-width="1" opacity="0.39215686274509803" d="M 165.5 61 L 169 63.5 L 167.5 63 Q 163.5 64 165.5 61 Z " /><path fill="rgb(43,41,29)" stroke="rgb(43,41,29)" stroke-width="1" opacity="0.39215686274509803" d="M 274 61 Q 277.3 59.7 276 64.5 L 277 66.5 L 276 66.5 L 274.5 64 L 272.5 68 L 272 66.5 L 274 61 Z " /><path fill="rgb(43,41,29)" stroke="rgb(43,41,29)" stroke-width="1" opacity="0.39215686274509803" d="M 67.5 62 L 66.5 64 L 67.5 62 Z " /><path fill="rgb(43,41,29)" stroke="rgb(43,41,29)" stroke-width="1" opacity="0.39215686274509803" d="M 177.5 62 L 179.5 65 L 177.5 62 Z " /><path fill="rgb(43,41,29)" stroke="rgb(43,41,29)" stroke-width="1" opacity="0.39215686274509803" d="M 285.5 62 L 287 64.5 L 286 64.5 L 285.5 62 Z " /><path fill="rgb(43,41,29)" stroke="rgb(43,41,29)" stroke-width="1" opacity="0.39215686274509803" d="M 64.5 64 L 65 65.5 L 56 73.5 L 64.5 64 Z " /><path fill="rgb(43,41,29)" stroke="rgb(43,41,29)" stroke-width="1" opacity="0.39215686274509803" d="M 170.5 64 L 172.5 67 L 170.5 64 Z " /><path fill="rgb(43,41,29)" stroke="rgb(43,41,29)" stroke-width="1" opacity="0.39215686274509803" d="M 74.5 65 L 76 65.5 L 73.5 67 L 74.5 65 Z " /><path fill="rgb(43,41,29)" stroke="rgb(43,41,29)" stroke-width="1" opacity="0.39215686274509803" d="M 268.5 65 L 268 66.5 L 267.5 68 L 267 66.5 L 268.5 65 Z " /><path fill="rgb(43,41,29)" stroke="rgb(43,41,29)" stroke-width="1" opacity="0.39215686274509803" d="M 182.5 66 L 185 67 L 186 69.5 L 182.5 66 Z " /><path fill="rgb(43,41,29)" stroke="rgb(43,41,29)" stroke-width="1" opacity="0.39215686274509803" d="M 287.5 66 L 289 69.5 L 288 69.5 L 287.5 66 Z " /><path fill="rgb(43,41,29)" stroke="rgb(43,41,29)" stroke-width="1" opacity="0.39215686274509803" d="M 332.5 66 L 341 66.5 L 332.5 67 L 332.5 66 Z " /><path fill="rgb(43,41,29)" stroke="rgb(43,41,29)" stroke-width="1" opacity="0.39215686274509803" d="M 372.5 66 L 381 66.5 L 372.5 67 L 372.5 66 Z " /><path fill="rgb(43,41,29)" stroke="rgb(43,41,29)" stroke-width="1" opacity="0.39215686274509803" d="M 415.5 66 L 426 66.5 L 415.5 67 L 415.5 66 Z " /><path fill="rgb(43,41,29)" stroke="rgb(43,41,29)" stroke-width="1" opacity="0.39215686274509803" d="M 480.5 66 L 484 67.5 L 483.5 97 L 483 67 L 477.5 68 L 477.5 67 L 480.5 66 Z " /><path fill="rgb(43,41,29)" stroke="rgb(43,41,29)" stroke-width="1" opacity="0.39215686274509803" d="M 508.5 66 Q 511.8 64.9 511 67.5 L 512 68.5 L 512 79.5 L 511 79.5 L 511 68.5 L 509.5 67 L 508.5 66 Z " /><path fill="rgb(43,41,29)" stroke="rgb(43,41,29)" stroke-width="1" opacity="0.39215686274509803" d="M 523.5 66 L 522.5 68 L 523.5 66 Z " /><path fill="rgb(43,41,29)" stroke="rgb(43,41,29)" stroke-width="1" opacity="0.39215686274509803" d="M 564.5 66 L 573 66.5 L 564.5 67 L 564.5 66 Z " /><path fill="rgb(43,41,29)" stroke="rgb(43,41,29)" stroke-width="1" opacity="0.39215686274509803" d="M 71.5 67 L 69.5 70 L 71.5 67 Z " /><path fill="rgb(43,41,29)" stroke="rgb(43,41,29)" stroke-width="1" opacity="0.39215686274509803" d="M 412.5 67 L 414 67.5 L 410.5 69 L 410.5 68 L 412.5 67 Z " /><path fill="rgb(43,41,29)" stroke="rgb(43,41,29)" stroke-width="1" opacity="0.39215686274509803" d="M 472.5 67 L 476 68.5 L 472 69 L 472.5 67 Z " /><path fill="rgb(43,41,29)" stroke="rgb(43,41,29)" stroke-width="1" opacity="0.39215686274509803" d="M 541.5 67 L 545 67.5 L 541.5 68 L 541.5 67 Z " /><path fill="rgb(43,41,29)" stroke="rgb(43,41,29)" stroke-width="1" opacity="0.39215686274509803" d="M 175.5 68 L 189 82.5 L 183 77.5 L 176.5 70 Q 173.7 70.7 175.5 68 Z " /><path fill="rgb(43,41,29)" stroke="rgb(43,41,29)" stroke-width="1" opacity="0.39215686274509803" d="M 344.5 68 L 350 71 L 351 73.5 L 345.5 69 L 344.5 68 Z " /><path fill="rgb(43,41,29)" stroke="rgb(43,41,29)" stroke-width="1" opacity="0.39215686274509803" d="M 366.5 68 L 367 69.5 L 365 70.5 L 366.5 68 Z " /><path fill="rgb(43,41,29)" stroke="rgb(43,41,29)" stroke-width="1" opacity="0.39215686274509803" d="M 387.5 68 L 390 69.5 L 390 78.5 L 388.5 80 Q 386.3 80.8 387 78.5 L 386.5 77 L 389 78.5 L 389 69.5 L 387.5 69 L 387.5 68 Z " /><path fill="rgb(43,41,29)" stroke="rgb(43,41,29)" stroke-width="1" opacity="0.39215686274509803" d="M 519.5 68 L 521 68.5 L 518 70.5 Q 517.3 72.8 519.5 72 L 519.5 73 L 517 71.5 L 519.5 68 Z " /><path fill="rgb(43,41,29)" stroke="rgb(43,41,29)" stroke-width="1" opacity="0.39215686274509803" d="M 559.5 68 L 558.5 70 L 559.5 68 Z " /><path fill="rgb(43,41,29)" stroke="rgb(43,41,29)" stroke-width="1" opacity="0.39215686274509803" d="M 266.5 69 L 267 70.5 L 265 71.5 L 266.5 69 Z " /><path fill="rgb(43,41,29)" stroke="rgb(43,41,29)" stroke-width="1" opacity="0.39215686274509803" d="M 325 69 L 327 69.5 L 325 70.5 L 325 69 Z " /><path fill="rgb(43,41,29)" stroke="rgb(43,41,29)" stroke-width="1" opacity="0.39215686274509803" d="M 408.5 69 L 407.5 71 L 408.5 69 Z " /><path fill="rgb(43,41,29)" stroke="rgb(43,41,29)" stroke-width="1" opacity="0.39215686274509803" d="M 468.5 69 L 469 71 Q 472.8 70.3 474 73.5 L 471.5 72 L 468 70.5 L 468.5 69 Z " /><path fill="rgb(43,41,29)" stroke="rgb(43,41,29)" stroke-width="1" opacity="0.39215686274509803" d="M 496.5 69 L 496.5 71 L 499 71.5 L 495 72 L 496.5 69 Z " /><path fill="rgb(43,41,29)" stroke="rgb(43,41,29)" stroke-width="1" opacity="0.39215686274509803" d="M 567.5 69 L 573 71.5 L 571.5 71 L 567.5 70 L 560.5 74 L 562.5 71 L 567.5 69 Z " /><path fill="rgb(43,41,29)" stroke="rgb(43,41,29)" stroke-width="1" opacity="0.39215686274509803" d="M 578.5 69 L 582 71.5 L 580.5 72 L 578.5 69 Z " /><path fill="rgb(43,41,29)" stroke="rgb(43,41,29)" stroke-width="1" opacity="0.39215686274509803" d="M 372.5 70 Q 382.3 68.3 385 73.5 L 386 75.5 L 381.5 72 L 373.5 71 L 370 73.5 Q 370.8 75.8 368.5 75 L 369 73.5 L 370.5 71 L 372.5 70 Z " /><path fill="rgb(43,41,29)" stroke="rgb(43,41,29)" stroke-width="1" opacity="0.39215686274509803" d="M 419.5 70 L 424 70.5 L 419.5 71 L 419.5 70 Z " /><path fill="rgb(43,41,29)" stroke="rgb(43,41,29)" stroke-width="1" opacity="0.39215686274509803" d="M 434.5 70 L 435.5 72 L 434.5 70 Z " /><path fill="rgb(43,41,29)" stroke="rgb(43,41,29)" stroke-width="1" opacity="0.39215686274509803" d="M 556.5 70 L 552.5 75 L 556.5 70 Z " /><path fill="rgb(43,41,29)" stroke="rgb(43,41,29)" stroke-width="1" opacity="0.39215686274509803" d="M 67.5 71 L 67 72.5 Q 67.8 74.8 65.5 74 L 64 74.5 L 67.5 71 Z " /><path fill="rgb(43,41,29)" stroke="rgb(43,41,29)" stroke-width="1" opacity="0.39215686274509803" d="M 187.5 71 L 189.5 74 L 187.5 71 Z " /><path fill="rgb(43,41,29)" stroke="rgb(43,41,29)" stroke-width="1" opacity="0.39215686274509803" d="M 289.5 71 L 290.5 73 Q 287.7 73.7 289.5 71 Z " /><path fill="rgb(43,41,29)" stroke="rgb(43,41,29)" stroke-width="1" opacity="0.39215686274509803" d="M 330.5 71 L 335 71.5 L 330.5 72 L 330.5 71 Z " /><path fill="rgb(43,41,29)" stroke="rgb(43,41,29)" stroke-width="1" opacity="0.39215686274509803" d="M 414.5 71 L 411.5 75 L 414.5 71 Z " /><path fill="rgb(43,41,29)" stroke="rgb(43,41,29)" stroke-width="1" opacity="0.39215686274509803" d="M 425.5 71 L 428.5 75 L 425.5 71 Z " /><path fill="rgb(43,41,29)" stroke="rgb(43,41,29)" stroke-width="1" opacity="0.39215686274509803" d="M 327.5 72 L 326.5 74 L 325 73.5 L 327.5 72 Z " /><path fill="rgb(43,41,29)" stroke="rgb(43,41,29)" stroke-width="1" opacity="0.39215686274509803" d="M 362.5 72 L 363 73.5 L 362 74.5 L 362 82.5 L 362.5 84 L 361 82.5 L 361 74.5 L 362.5 72 Z " /><path fill="rgb(43,41,29)" stroke="rgb(43,41,29)" stroke-width="1" opacity="0.39215686274509803" d="M 404.5 72 L 403.5 74 L 404.5 72 Z " /><path fill="rgb(43,41,29)" stroke="rgb(43,41,29)" stroke-width="1" opacity="0.39215686274509803" d="M 522.5 72 L 524 72.5 L 524 95.5 L 523 95.5 L 523 73.5 L 522.5 72 Z " /><path fill="rgb(43,41,29)" stroke="rgb(43,41,29)" stroke-width="1" opacity="0.39215686274509803" d="M 338.5 73 L 339.5 75 L 338.5 73 Z " /><path fill="rgb(43,41,29)" stroke="rgb(43,41,29)" stroke-width="1" opacity="0.39215686274509803" d="M 582.5 73 L 585 78.5 L 584 78.5 L 582.5 73 Z " /><path fill="rgb(43,41,29)" stroke="rgb(43,41,29)" stroke-width="1" opacity="0.39215686274509803" d="M 323.5 74 L 324 76.5 L 323 76.5 L 323.5 74 Z " /><path fill="rgb(43,41,29)" stroke="rgb(43,41,29)" stroke-width="1" opacity="0.39215686274509803" d="M 438.5 74 L 439.5 76 L 438.5 74 Z " /><path fill="rgb(43,41,29)" stroke="rgb(43,41,29)" stroke-width="1" opacity="0.39215686274509803" d="M 190.5 75 L 193.5 79 L 190.5 75 Z " /><path fill="rgb(43,41,29)" stroke="rgb(43,41,29)" stroke-width="1" opacity="0.39215686274509803" d="M 402.5 75 L 401.5 77 L 402.5 75 Z " /><path fill="rgb(43,41,29)" stroke="rgb(43,41,29)" stroke-width="1" opacity="0.39215686274509803" d="M 501.5 75 L 502 97 L 500 96.5 L 501 95.5 L 501 78.5 L 501 76.5 L 501.5 75 Z " /><path fill="rgb(43,41,29)" stroke="rgb(43,41,29)" stroke-width="1" opacity="0.39215686274509803" d="M 263.5 76 L 264 77.5 L 262.5 80 L 262 78.5 L 263.5 76 Z " /><path fill="rgb(43,41,29)" stroke="rgb(43,41,29)" stroke-width="1" opacity="0.39215686274509803" d="M 268.5 76 L 269 78.5 L 267 79.5 L 268.5 76 Z " /><path fill="rgb(43,41,29)" stroke="rgb(43,41,29)" stroke-width="1" opacity="0.39215686274509803" d="M 341.5 76 L 343 79.5 L 342 79.5 L 341.5 76 Z " /><path fill="rgb(43,41,29)" stroke="rgb(43,41,29)" stroke-width="1" opacity="0.39215686274509803" d="M 440.5 77 L 441.5 79 L 440.5 77 Z " /><path fill="rgb(43,41,29)" stroke="rgb(43,41,29)" stroke-width="1" opacity="0.39215686274509803" d="M 558.5 77 L 559 80 L 576 80.5 L 559.5 81 L 557 80.5 L 558.5 77 Z " /><path fill="rgb(43,41,29)" stroke="rgb(43,41,29)" stroke-width="1" opacity="0.39215686274509803" d="M 353.5 78 L 355 80.5 L 355 91.5 L 354 91.5 Q 354.7 81.9 353.5 78 Z " /><path fill="rgb(43,41,29)" stroke="rgb(43,41,29)" stroke-width="1" opacity="0.39215686274509803" d="M 400.5 78 L 401 80 L 399 79.5 L 400.5 78 Z " /><path fill="rgb(43,41,29)" stroke="rgb(43,41,29)" stroke-width="1" opacity="0.39215686274509803" d="M 59.5 79 L 58.5 81 L 59.5 79 Z " /><path fill="rgb(43,41,29)" stroke="rgb(43,41,29)" stroke-width="1" opacity="0.39215686274509803" d="M 292.5 79 L 295 82.5 L 293 83 L 292.5 79 Z " /><path fill="rgb(43,41,29)" stroke="rgb(43,41,29)" stroke-width="1" opacity="0.39215686274509803" d="M 166.5 80 Q 169.5 79.1 168 83.5 L 167 83.5 L 166.5 81 L 163.5 83 L 164.5 81 L 166.5 80 Z " /><path fill="rgb(43,41,29)" stroke="rgb(43,41,29)" stroke-width="1" opacity="0.39215686274509803" d="M 194.5 80 Q 196.8 79.3 196 81.5 L 194.5 80 Z " /><path fill="rgb(43,41,29)" stroke="rgb(43,41,29)" stroke-width="1" opacity="0.39215686274509803" d="M 372.5 80 L 382 83.5 L 380.5 84 L 372.5 81 L 372.5 80 Z " /><path fill="rgb(43,41,29)" stroke="rgb(43,41,29)" stroke-width="1" opacity="0.39215686274509803" d="M 261.5 81 L 262 82.5 L 260.5 85 L 260 83.5 L 261.5 81 Z " /><path fill="rgb(43,41,29)" stroke="rgb(43,41,29)" stroke-width="1" opacity="0.39215686274509803" d="M 49.5 82 L 47.5 85 L 49.5 82 Z " /><path fill="rgb(43,41,29)" stroke="rgb(43,41,29)" stroke-width="1" opacity="0.39215686274509803" d="M 266.5 82 L 267 84 L 272 84.5 L 267.5 85 L 266.5 82 Z " /><path fill="rgb(43,41,29)" stroke="rgb(43,41,29)" stroke-width="1" opacity="0.39215686274509803" d="M 510.5 82 L 511 95.5 L 512 96.5 L 510 97 L 510.5 82 Z " /><path fill="rgb(43,41,29)" stroke="rgb(43,41,29)" stroke-width="1" opacity="0.39215686274509803" d="M 585.5 82 L 586 83.5 L 584.5 85 L 559 85 L 558.5 87 L 558 84 L 584.5 84 L 585.5 82 Z " /><path fill="rgb(43,41,29)" stroke="rgb(43,41,29)" stroke-width="1" opacity="0.39215686274509803" d="M 56.5 83 L 56 84.5 L 51.5 91 L 52 89.5 L 56.5 83 Z " /><path fill="rgb(43,41,29)" stroke="rgb(43,41,29)" stroke-width="1" opacity="0.39215686274509803" d="M 196.5 83 L 197.5 85 L 196.5 83 Z " /><path fill="rgb(43,41,29)" stroke="rgb(43,41,29)" stroke-width="1" opacity="0.39215686274509803" d="M 408.5 83 L 410 93.5 L 409 93.5 L 408.5 83 Z " /><path fill="rgb(43,41,29)" stroke="rgb(43,41,29)" stroke-width="1" opacity="0.39215686274509803" d="M 280.5 84 L 284 84.5 L 280.5 85 L 280.5 84 Z " /><path fill="rgb(43,41,29)" stroke="rgb(43,41,29)" stroke-width="1" opacity="0.39215686274509803" d="M 548.5 84 L 549 90.5 L 548 90.5 L 548.5 84 Z " /><path fill="rgb(43,41,29)" stroke="rgb(43,41,29)" stroke-width="1" opacity="0.39215686274509803" d="M 190.5 85 L 194 90.5 L 192 89.5 L 190.5 85 Z " /><path fill="rgb(43,41,29)" stroke="rgb(43,41,29)" stroke-width="1" opacity="0.39215686274509803" d="M 387.5 85 L 389.5 88 L 387 87 L 387.5 85 Z " /><path fill="rgb(43,41,29)" stroke="rgb(43,41,29)" stroke-width="1" opacity="0.39215686274509803" d="M 433.5 85 L 434 92.5 L 433 92.5 L 433.5 85 Z " /><path fill="rgb(43,41,29)" stroke="rgb(43,41,29)" stroke-width="1" opacity="0.39215686274509803" d="M 443.5 85 L 444 90.5 L 443 90.5 L 443.5 85 Z " /><path fill="rgb(43,41,29)" stroke="rgb(43,41,29)" stroke-width="1" opacity="0.39215686274509803" d="M 198.5 86 L 200.5 89 Q 198.3 89.8 199 87.5 L 198.5 86 Z " /><path fill="rgb(43,41,29)" stroke="rgb(43,41,29)" stroke-width="1" opacity="0.39215686274509803" d="M 365.5 86 L 371 89.5 L 369.5 90 L 365 88 L 365.5 86 Z " /><path fill="rgb(43,41,29)" stroke="rgb(43,41,29)" stroke-width="1" opacity="0.39215686274509803" d="M 154.5 87 L 153.5 89 L 154.5 87 Z " /><path fill="rgb(43,41,29)" stroke="rgb(43,41,29)" stroke-width="1" opacity="0.39215686274509803" d="M 165.5 87 L 166 88.5 L 164 89.5 L 165.5 87 Z " /><path fill="rgb(43,41,29)" stroke="rgb(43,41,29)" stroke-width="1" opacity="0.39215686274509803" d="M 264.5 87 L 285.5 87 L 286 88.5 L 288 92.5 L 287 92.5 L 284.5 88 L 264.5 88 L 264.5 87 Z " /><path fill="rgb(43,41,29)" stroke="rgb(43,41,29)" stroke-width="1" opacity="0.39215686274509803" d="M 44.5 90 L 43.5 92 L 44.5 90 Z " /><path fill="rgb(43,41,29)" stroke="rgb(43,41,29)" stroke-width="1" opacity="0.39215686274509803" d="M 148.5 90 L 149 92 L 146.5 93 L 148.5 90 Z " /><path fill="rgb(43,41,29)" stroke="rgb(43,41,29)" stroke-width="1" opacity="0.39215686274509803" d="M 200.5 90 L 201.5 92 L 200.5 90 Z " /><path fill="rgb(43,41,29)" stroke="rgb(43,41,29)" stroke-width="1" opacity="0.39215686274509803" d="M 558.5 90 L 559 92.5 L 558 92.5 L 558.5 90 Z " /><path fill="rgb(43,41,29)" stroke="rgb(43,41,29)" stroke-width="1" opacity="0.39215686274509803" d="M 163.5 91 L 164 92.5 L 161.5 96 L 162 94.5 L 163.5 91 Z " /><path fill="rgb(43,41,29)" stroke="rgb(43,41,29)" stroke-width="1" opacity="0.39215686274509803" d="M 297.5 91 L 300 96.5 L 299 96.5 L 297.5 91 Z " /><path fill="rgb(43,41,29)" stroke="rgb(43,41,29)" stroke-width="1" opacity="0.39215686274509803" d="M 343.5 91 Q 345.8 90.3 345 92.5 L 343.5 91 Z " /><path fill="rgb(43,41,29)" stroke="rgb(43,41,29)" stroke-width="1" opacity="0.39215686274509803" d="M 50.5 92 L 52 92.5 L 50.5 95 Q 47.5 93.5 50.5 92 Z " /><path fill="rgb(43,41,29)" stroke="rgb(43,41,29)" stroke-width="1" opacity="0.39215686274509803" d="M 194.5 92 L 195.5 94 L 194.5 92 Z " /><path fill="rgb(43,41,29)" stroke="rgb(43,41,29)" stroke-width="1" opacity="0.39215686274509803" d="M 392.5 92 L 393 94.5 L 392 94.5 L 392.5 92 Z " /><path fill="rgb(43,41,29)" stroke="rgb(43,41,29)" stroke-width="1" opacity="0.39215686274509803" d="M 442.5 92 L 443 94.5 L 441 95.5 L 442.5 92 Z " /><path fill="rgb(43,41,29)" stroke="rgb(43,41,29)" stroke-width="1" opacity="0.39215686274509803" d="M 202.5 93 L 206 98.5 L 204 99 L 202.5 93 Z " /><path fill="rgb(43,41,29)" stroke="rgb(43,41,29)" stroke-width="1" opacity="0.39215686274509803" d="M 323.5 93 L 325 99.5 L 323 98.5 L 323.5 93 Z " /><path fill="rgb(43,41,29)" stroke="rgb(43,41,29)" stroke-width="1" opacity="0.39215686274509803" d="M 353.5 93 L 354 94.5 L 352 95.5 L 353.5 93 Z " /><path fill="rgb(43,41,29)" stroke="rgb(43,41,29)" stroke-width="1" opacity="0.39215686274509803" d="M 361.5 93 L 364 94.5 L 365 96.5 L 363 95.5 Q 363.8 93.3 361.5 94 L 361.5 93 Z " /><path fill="rgb(43,41,29)" stroke="rgb(43,41,29)" stroke-width="1" opacity="0.39215686274509803" d="M 142.5 94 L 141.5 96 L 139.5 97 L 140.5 95 L 142.5 94 Z " /><path fill="rgb(43,41,29)" stroke="rgb(43,41,29)" stroke-width="1" opacity="0.39215686274509803" d="M 382.5 94 L 386 99.5 L 384 98.5 L 382.5 94 Z " /><path fill="rgb(43,41,29)" stroke="rgb(43,41,29)" stroke-width="1" opacity="0.39215686274509803" d="M 559.5 94 L 561 96.5 L 559 95.5 L 559.5 94 Z " /><path fill="rgb(43,41,29)" stroke="rgb(43,41,29)" stroke-width="1" opacity="0.39215686274509803" d="M 584.5 94 Q 586.8 94.8 586 98.5 L 581.5 104 L 583 101.5 Q 585.6 100.1 585 95.5 L 583 95.5 L 584.5 94 Z " /><path fill="rgb(43,41,29)" stroke="rgb(43,41,29)" stroke-width="1" opacity="0.39215686274509803" d="M 195.5 95 Q 197.8 94.3 197 96.5 L 195.5 95 Z " /><path fill="rgb(43,41,29)" stroke="rgb(43,41,29)" stroke-width="1" opacity="0.39215686274509803" d="M 261.5 95 L 262 96.5 L 261 103 L 263 103.5 L 261.5 104 Q 258.8 102.8 260 97.5 L 261.5 95 Z " /><path fill="rgb(43,41,29)" stroke="rgb(43,41,29)" stroke-width="1" opacity="0.39215686274509803" d="M 360.5 95 Q 363.3 97.8 362 104 Q 364.7 102.9 364 105.5 L 361 103.5 L 360.5 95 Z " /><path fill="rgb(43,41,29)" stroke="rgb(43,41,29)" stroke-width="1" opacity="0.39215686274509803" d="M 392.5 96 L 393 98.5 L 392 98.5 L 392.5 96 Z " /><path fill="rgb(43,41,29)" stroke="rgb(43,41,29)" stroke-width="1" opacity="0.39215686274509803" d="M 351.5 97 L 350.5 99 L 351.5 97 Z " /><path fill="rgb(43,41,29)" stroke="rgb(43,41,29)" stroke-width="1" opacity="0.39215686274509803" d="M 440.5 97 L 440 98.5 L 437.5 102 L 438 100.5 L 440.5 97 Z " /><path fill="rgb(43,41,29)" stroke="rgb(43,41,29)" stroke-width="1" opacity="0.39215686274509803" d="M 582.5 97 L 580.5 100 L 580 98 L 582.5 97 Z " /><path fill="rgb(43,41,29)" stroke="rgb(43,41,29)" stroke-width="1" opacity="0.39215686274509803" d="M 197.5 98 L 199 100.5 L 198 100.5 L 197.5 98 Z " /><path fill="rgb(43,41,29)" stroke="rgb(43,41,29)" stroke-width="1" opacity="0.39215686274509803" d="M 254.5 98 L 254 99.5 L 250.5 104 L 247.5 105 L 248.5 103 Q 252.5 103.5 253 100.5 L 254.5 98 Z " /><path fill="rgb(43,41,29)" stroke="rgb(43,41,29)" stroke-width="1" opacity="0.39215686274509803" d="M 365.5 98 L 368.5 102 L 365.5 98 Z " /><path fill="rgb(43,41,29)" stroke="rgb(43,41,29)" stroke-width="1" opacity="0.39215686274509803" d="M 401.5 98 L 406.5 104 L 401.5 98 Z " /><path fill="rgb(43,41,29)" stroke="rgb(43,41,29)" stroke-width="1" opacity="0.39215686274509803" d="M 431.5 98 L 432 99.5 L 425.5 104 L 425.5 103 L 429 102 L 431.5 98 Z " /><path fill="rgb(43,41,29)" stroke="rgb(43,41,29)" stroke-width="1" opacity="0.39215686274509803" d="M 484.5 98 L 486 100.5 L 484 99.5 L 484.5 98 Z " /><path fill="rgb(43,41,29)" stroke="rgb(43,41,29)" stroke-width="1" opacity="0.39215686274509803" d="M 500.5 98 L 499.5 100 L 500.5 98 Z " /><path fill="rgb(43,41,29)" stroke="rgb(43,41,29)" stroke-width="1" opacity="0.39215686274509803" d="M 511.5 98 L 512 100 L 510 99.5 L 511.5 98 Z " /><path fill="rgb(43,41,29)" stroke="rgb(43,41,29)" stroke-width="1" opacity="0.39215686274509803" d="M 533.5 98 L 535 101.5 L 533 100.5 L 533.5 98 Z " /><path fill="rgb(43,41,29)" stroke="rgb(43,41,29)" stroke-width="1" opacity="0.39215686274509803" d="M 132.5 99 L 133 100.5 L 129.5 103 L 130.5 101 Q 133 101.7 132.5 99 Z " /><path fill="rgb(43,41,29)" stroke="rgb(43,41,29)" stroke-width="1" opacity="0.39215686274509803" d="M 159.5 99 L 160 100.5 L 158 101.5 L 159.5 99 Z " /><path fill="rgb(43,41,29)" stroke="rgb(43,41,29)" stroke-width="1" opacity="0.39215686274509803" d="M 340.5 99 L 341 100.5 L 335.5 104 L 335.5 103 L 340 100.5 L 340.5 99 Z " /><path fill="rgb(43,41,29)" stroke="rgb(43,41,29)" stroke-width="1" opacity="0.39215686274509803" d="M 412.5 99 L 414.5 102 L 412.5 99 Z " /><path fill="rgb(43,41,29)" stroke="rgb(43,41,29)" stroke-width="1" opacity="0.39215686274509803" d="M 563.5 99 L 570 101.5 L 566.5 102 L 563.5 99 Z " /><path fill="rgb(43,41,29)" stroke="rgb(43,41,29)" stroke-width="1" opacity="0.39215686274509803" d="M 487.5 100 L 490 101.5 L 487 102 L 487.5 100 Z " /><path fill="rgb(43,41,29)" stroke="rgb(43,41,29)" stroke-width="1" opacity="0.39215686274509803" d="M 313.5 101 L 314 103.5 L 313 103.5 L 313.5 101 Z " /><path fill="rgb(43,41,29)" stroke="rgb(43,41,29)" stroke-width="1" opacity="0.39215686274509803" d="M 384.5 101 L 383.5 103 Q 380.8 105.8 374.5 105 L 374.5 104 Q 381.9 104.9 384.5 101 Z " /><path fill="rgb(43,41,29)" stroke="rgb(43,41,29)" stroke-width="1" opacity="0.39215686274509803" d="M 475.5 101 L 477 103.5 L 475 102.5 L 475.5 101 Z " /><path fill="rgb(43,41,29)" stroke="rgb(43,41,29)" stroke-width="1" opacity="0.39215686274509803" d="M 493.5 101 L 496 101.5 L 493.5 102 L 493.5 101 Z " /><path fill="rgb(43,41,29)" stroke="rgb(43,41,29)" stroke-width="1" opacity="0.39215686274509803" d="M 543.5 101 L 545 102.5 L 541.5 106 L 544 102.5 L 543.5 101 Z " /><path fill="rgb(43,41,29)" stroke="rgb(43,41,29)" stroke-width="1" opacity="0.39215686274509803" d="M 552.5 101 L 553.5 103 L 552.5 101 Z " /><path fill="rgb(43,41,29)" stroke="rgb(43,41,29)" stroke-width="1" opacity="0.39215686274509803" d="M 45.5 102 Q 48.3 103.3 46 104.5 L 44.5 108 L 44 105.5 Q 47.1 103.8 45.5 102 Z " /><path fill="rgb(43,41,29)" stroke="rgb(43,41,29)" stroke-width="1" opacity="0.39215686274509803" d="M 290.5 102 L 289.5 104 L 288 103.5 L 290.5 102 Z " /><path fill="rgb(43,41,29)" stroke="rgb(43,41,29)" stroke-width="1" opacity="0.39215686274509803" d="M 303.5 102 L 304.5 104 L 303.5 102 Z " /><path fill="rgb(43,41,29)" stroke="rgb(43,41,29)" stroke-width="1" opacity="0.39215686274509803" d="M 390.5 102 L 388.5 105 L 390.5 102 Z " /><path fill="rgb(43,41,29)" stroke="rgb(43,41,29)" stroke-width="1" opacity="0.39215686274509803" d="M 416.5 102 L 419 103.5 L 417.5 104 L 416.5 102 Z " /><path fill="rgb(43,41,29)" stroke="rgb(43,41,29)" stroke-width="1" opacity="0.39215686274509803" d="M 435.5 102 L 432.5 106 L 431 105.5 L 435.5 102 Z " /><path fill="rgb(43,41,29)" stroke="rgb(43,41,29)" stroke-width="1" opacity="0.39215686274509803" d="M 500.5 102 Q 503.1 101.2 502 104.5 L 503.5 107 L 500.5 102 Z " /><path fill="rgb(43,41,29)" stroke="rgb(43,41,29)" stroke-width="1" opacity="0.39215686274509803" d="M 511.5 102 L 515 104.5 L 513.5 105 L 511.5 102 Z " /><path fill="rgb(43,41,29)" stroke="rgb(43,41,29)" stroke-width="1" opacity="0.39215686274509803" d="M 127.5 103 L 126.5 105 L 127.5 103 Z " /><path fill="rgb(43,41,29)" stroke="rgb(43,41,29)" stroke-width="1" opacity="0.39215686274509803" d="M 157.5 103 L 158 104.5 L 155.5 108 L 156 106.5 L 157.5 103 Z " /><path fill="rgb(43,41,29)" stroke="rgb(43,41,29)" stroke-width="1" opacity="0.39215686274509803" d="M 345.5 103 L 347 103.5 L 344.5 105 L 345.5 103 Z " /><path fill="rgb(43,41,29)" stroke="rgb(43,41,29)" stroke-width="1" opacity="0.39215686274509803" d="M 420.5 103 L 424 104.5 L 420 105 L 420.5 103 Z " /><path fill="rgb(43,41,29)" stroke="rgb(43,41,29)" stroke-width="1" opacity="0.39215686274509803" d="M 446.5 103 L 447 104.5 L 446.5 107 Q 443.9 107.8 445 104.5 L 446.5 103 Z " /><path fill="rgb(43,41,29)" stroke="rgb(43,41,29)" stroke-width="1" opacity="0.39215686274509803" d="M 498.5 103 L 497.5 105 L 498.5 103 Z " /><path fill="rgb(43,41,29)" stroke="rgb(43,41,29)" stroke-width="1" opacity="0.39215686274509803" d="M 524.5 103 Q 526.8 102.3 526 104.5 L 527.5 107 L 524.5 103 Z " /><path fill="rgb(43,41,29)" stroke="rgb(43,41,29)" stroke-width="1" opacity="0.39215686274509803" d="M 555.5 103 L 556.5 105 L 555.5 103 Z " /><path fill="rgb(43,41,29)" stroke="rgb(43,41,29)" stroke-width="1" opacity="0.39215686274509803" d="M 124.5 104 L 122.5 107 L 124.5 104 Z " /><path fill="rgb(43,41,29)" stroke="rgb(43,41,29)" stroke-width="1" opacity="0.39215686274509803" d="M 265.5 104 L 267 106.5 L 266 106.5 L 265.5 104 Z " /><path fill="rgb(43,41,29)" stroke="rgb(43,41,29)" stroke-width="1" opacity="0.39215686274509803" d="M 286.5 104 L 286.5 106 L 289 106.5 L 285 107 L 286.5 104 Z " /><path fill="rgb(43,41,29)" stroke="rgb(43,41,29)" stroke-width="1" opacity="0.39215686274509803" d="M 306.5 104 Q 309.5 105.5 306.5 107 L 306.5 104 Z " /><path fill="rgb(43,41,29)" stroke="rgb(43,41,29)" stroke-width="1" opacity="0.39215686274509803" d="M 317 104 L 324 106.5 L 321.5 107 L 319 106.5 L 318.5 105 Q 317.3 108 313 107 L 313.5 105 L 317 106 L 317 104 Z " /><path fill="rgb(43,41,29)" stroke="rgb(43,41,29)" stroke-width="1" opacity="0.39215686274509803" d="M 408.5 104 L 407.5 106 L 408.5 104 Z " /><path fill="rgb(43,41,29)" stroke="rgb(43,41,29)" stroke-width="1" opacity="0.39215686274509803" d="M 465.5 104 L 467 107 L 465 106.5 L 465.5 104 Z " /><path fill="rgb(43,41,29)" stroke="rgb(43,41,29)" stroke-width="1" opacity="0.39215686274509803" d="M 579.5 104 L 578.5 106 L 579.5 104 Z " /><path fill="rgb(43,41,29)" stroke="rgb(43,41,29)" stroke-width="1" opacity="0.39215686274509803" d="M 365.5 105 L 366.5 107 L 365.5 105 Z " /><path fill="rgb(43,41,29)" stroke="rgb(43,41,29)" stroke-width="1" opacity="0.39215686274509803" d="M 478.5 105 L 481 106.5 L 479.5 107 L 478.5 105 Z " /><path fill="rgb(43,41,29)" stroke="rgb(43,41,29)" stroke-width="1" opacity="0.39215686274509803" d="M 495.5 105 L 494.5 107 L 493 106.5 L 495.5 105 Z " /><path fill="rgb(43,41,29)" stroke="rgb(43,41,29)" stroke-width="1" opacity="0.39215686274509803" d="M 252.5 106 L 261 106.5 L 252.5 107 L 252.5 106 Z " /><path fill="rgb(43,41,29)" stroke="rgb(43,41,29)" stroke-width="1" opacity="0.39215686274509803" d="M 295.5 106 L 301 106.5 L 295.5 107 L 295.5 106 Z " /><path fill="rgb(43,41,29)" stroke="rgb(43,41,29)" stroke-width="1" opacity="0.39215686274509803" d="M 450.5 106 L 461 106.5 L 450.5 107 L 450.5 106 Z " /><path fill="rgb(43,41,29)" stroke="rgb(43,41,29)" stroke-width="1" opacity="0.39215686274509803" d="M 575.5 106 L 577 106.5 L 572.5 108 L 572.5 107 L 575.5 106 Z " /><path fill="rgb(43,41,29)" stroke="rgb(43,41,29)" stroke-width="1" opacity="0.39215686274509803" d="M 200.5 107 Q 202.8 106.3 202 108.5 L 200.5 107 Z " /><path fill="rgb(43,41,29)" stroke="rgb(43,41,29)" stroke-width="1" opacity="0.39215686274509803" d="M 326.5 107 L 329 107.5 L 326.5 108 L 326.5 107 Z " /><path fill="rgb(43,41,29)" stroke="rgb(43,41,29)" stroke-width="1" opacity="0.39215686274509803" d="M 414.5 107 L 417 107.5 L 414.5 108 L 414.5 107 Z " /><path fill="rgb(43,41,29)" stroke="rgb(43,41,29)" stroke-width="1" opacity="0.39215686274509803" d="M 425.5 107 L 428 107.5 L 425.5 108 L 425.5 107 Z " /><path fill="rgb(43,41,29)" stroke="rgb(43,41,29)" stroke-width="1" opacity="0.39215686274509803" d="M 489.5 107 L 492 107.5 L 489.5 108 L 489.5 107 Z " /><path fill="rgb(43,41,29)" stroke="rgb(43,41,29)" stroke-width="1" opacity="0.39215686274509803" d="M 535.5 107 L 538 107.5 L 535.5 108 L 535.5 107 Z " /><path fill="rgb(43,41,29)" stroke="rgb(43,41,29)" stroke-width="1" opacity="0.39215686274509803" d="M 118.5 108 L 117.5 110 L 118.5 108 Z " /><path fill="rgb(43,41,29)" stroke="rgb(43,41,29)" stroke-width="1" opacity="0.39215686274509803" d="M 36.5 109 L 37 113.5 L 36 113.5 L 36.5 109 Z " /><path fill="rgb(43,41,29)" stroke="rgb(43,41,29)" stroke-width="1" opacity="0.39215686274509803" d="M 154.5 109 L 154 110.5 L 153.5 112 L 153 110.5 L 154.5 109 Z " /><path fill="rgb(43,41,29)" stroke="rgb(43,41,29)" stroke-width="1" opacity="0.39215686274509803" d="M 113.5 111 L 112.5 113 L 113.5 111 Z " /><path fill="rgb(43,41,29)" stroke="rgb(43,41,29)" stroke-width="1" opacity="0.39215686274509803" d="M 209.5 111 L 211 115.5 L 209 114.5 L 209.5 111 Z " /><path fill="rgb(43,41,29)" stroke="rgb(43,41,29)" stroke-width="1" opacity="0.39215686274509803" d="M 42.5 112 L 43 114.5 L 42 114.5 L 42.5 112 Z " /><path fill="rgb(43,41,29)" stroke="rgb(43,41,29)" stroke-width="1" opacity="0.39215686274509803" d="M 41.5 116 L 42 117.5 Q 40.6 120.3 36 119 L 36.5 117 L 41 118 L 41.5 116 Z " /><path fill="rgb(43,41,29)" stroke="rgb(43,41,29)" stroke-width="1" opacity="0.39215686274509803" d="M 105.5 116 L 104.5 118 Q 101.5 117.1 103 121.5 L 102 121.5 Q 101.3 117.8 103.5 117 L 105.5 116 Z " /><path fill="rgb(43,41,29)" stroke="rgb(43,41,29)" stroke-width="1" opacity="0.39215686274509803" d="M 204.5 117 L 208 118.5 L 205.5 119 L 204.5 117 Z " /><path fill="rgb(43,41,29)" stroke="rgb(43,41,29)" stroke-width="1" opacity="0.39215686274509803" d="M 115.5 119 Q 121.3 117.8 122.5 121 L 123 119 L 132 123 L 133 125.5 L 129.5 126 L 130 124.5 Q 130.8 122.3 128.5 123 L 126.5 124 L 121.5 122 L 121.5 123 L 123 123.5 L 121.5 124 L 113.5 121 L 115 123.5 L 114.5 125 L 112 121.5 L 115.5 119 Z M 119 121 L 119 122 L 121 122 L 119 121 Z M 126 121 Q 125 124 128 123 Q 129 120 126 121 Z " /><path fill="rgb(43,41,29)" stroke="rgb(43,41,29)" stroke-width="1" opacity="0.39215686274509803" d="M 149.5 119 L 150 120.5 L 148 121.5 L 149.5 119 Z " /><path fill="rgb(43,41,29)" stroke="rgb(43,41,29)" stroke-width="1" opacity="0.39215686274509803" d="M 110.5 122 L 113.5 127 L 118.5 125 L 118.5 126 L 114 127 L 111 132.5 L 111 135.5 L 113.5 139 L 115.5 138 L 116.5 141 L 120.5 142 L 128 136.5 Q 128.6 130.3 126 128 L 120 125.5 L 122.5 125 L 125 125.5 L 126.5 128 Q 127.7 125.8 129 128.5 L 128 131.5 L 129 136.5 L 125.5 141 Q 123.2 143.7 117.5 143 L 111 138.5 L 110 132.5 L 113 127.5 L 112 125 L 109.5 126 L 108 125.5 L 104.5 132 L 104 130.5 L 110.5 122 Z " /><path fill="rgb(43,41,29)" stroke="rgb(43,41,29)" stroke-width="1" opacity="0.39215686274509803" d="M 147.5 123 L 148 124.5 L 146 125.5 L 147.5 123 Z " /><path fill="rgb(43,41,29)" stroke="rgb(43,41,29)" stroke-width="1" opacity="0.39215686274509803" d="M 44.5 124 L 49 124 L 49 136.5 L 48 136.5 L 48 126.5 L 46.5 125 L 36.5 127 L 27.5 127 L 27.5 126 L 35.5 126 L 44.5 124 Z " /><path fill="rgb(43,41,29)" stroke="rgb(43,41,29)" stroke-width="1" opacity="0.39215686274509803" d="M 103.5 124 L 104 126.5 L 103 126.5 L 103.5 124 Z " /><path fill="rgb(43,41,29)" stroke="rgb(43,41,29)" stroke-width="1" opacity="0.39215686274509803" d="M 197.5 125 L 208 125.5 L 197.5 126 L 197.5 125 Z " /><path fill="rgb(43,41,29)" stroke="rgb(43,41,29)" stroke-width="1" opacity="0.39215686274509803" d="M 210.5 126 L 218 126.5 L 210.5 127 L 210.5 126 Z " /><path fill="rgb(43,41,29)" stroke="rgb(43,41,29)" stroke-width="1" opacity="0.39215686274509803" d="M 471.5 126 L 475 127.5 L 474.5 130 L 474 127 L 469.5 128 L 469.5 127 L 471.5 126 Z " /><path fill="rgb(43,41,29)" stroke="rgb(43,41,29)" stroke-width="1" opacity="0.39215686274509803" d="M 23.5 127 L 26 127.5 L 23.5 128 L 23.5 127 Z " /><path fill="rgb(43,41,29)" stroke="rgb(43,41,29)" stroke-width="1" opacity="0.39215686274509803" d="M 130 127 Q 135.6 124.8 134 130.5 L 135 135.5 L 133.5 140 Q 130.8 138.8 133 137.5 L 134 134.5 L 132.5 128 L 130 129 L 130 127 Z " /><path fill="rgb(43,41,29)" stroke="rgb(43,41,29)" stroke-width="1" opacity="0.39215686274509803" d="M 196.5 127 L 197 132.5 L 196 132.5 L 196.5 127 Z " /><path fill="rgb(43,41,29)" stroke="rgb(43,41,29)" stroke-width="1" opacity="0.39215686274509803" d="M 220.5 127 L 225 127.5 L 220.5 128 L 220.5 127 Z " /><path fill="rgb(43,41,29)" stroke="rgb(43,41,29)" stroke-width="1" opacity="0.39215686274509803" d="M 15.5 128 L 19 128.5 L 15.5 129 L 15.5 128 Z " /><path fill="rgb(43,41,29)" stroke="rgb(43,41,29)" stroke-width="1" opacity="0.39215686274509803" d="M 464.5 128 L 468 128.5 L 462.5 130 L 462.5 129 L 464.5 128 Z " /><path fill="rgb(43,41,29)" stroke="rgb(43,41,29)" stroke-width="1" opacity="0.39215686274509803" d="M 12.5 129 L 12 130.5 L 13 132.5 L 11.5 133 Q 8 131 12.5 129 Z " /><path fill="rgb(43,41,29)" stroke="rgb(43,41,29)" stroke-width="1" opacity="0.39215686274509803" d="M 231.5 129 Q 235 131 230.5 133 L 231.5 129 Z " /><path fill="rgb(43,41,29)" stroke="rgb(43,41,29)" stroke-width="1" opacity="0.39215686274509803" d="M 458 130 L 460 130 Q 458.9 132.7 461.5 132 L 464 133.5 L 462.5 134 L 458 131.5 L 458 130 Z " /><path fill="rgb(43,41,29)" stroke="rgb(43,41,29)" stroke-width="1" opacity="0.39215686274509803" d="M 98.5 131 Q 100.8 130.3 100 132.5 L 101 134.5 L 100 134.5 L 98.5 132 L 92.5 143 L 93 141.5 L 98.5 131 Z " /><path fill="rgb(43,41,29)" stroke="rgb(43,41,29)" stroke-width="1" opacity="0.39215686274509803" d="M 252.5 132 L 296.5 132 L 298 133.5 L 297.5 135 L 297 133 L 252.5 133 L 252.5 132 Z " /><path fill="rgb(43,41,29)" stroke="rgb(43,41,29)" stroke-width="1" opacity="0.39215686274509803" d="M 14.5 133 L 28 134 L 27.5 136 L 26.5 135 L 14.5 134 L 14.5 133 Z " /><path fill="rgb(43,41,29)" stroke="rgb(43,41,29)" stroke-width="1" opacity="0.39215686274509803" d="M 142.5 133 L 143 134.5 L 139.5 139 L 140 137.5 L 142.5 133 Z " /><path fill="rgb(43,41,29)" stroke="rgb(43,41,29)" stroke-width="1" opacity="0.39215686274509803" d="M 224.5 133 L 229 133.5 L 220.5 135 L 220.5 134 L 224.5 133 Z " /><path fill="rgb(43,41,29)" stroke="rgb(43,41,29)" stroke-width="1" opacity="0.39215686274509803" d="M 473.5 133 L 474 143.5 L 473 143.5 L 473.5 133 Z " /><path fill="rgb(43,41,29)" stroke="rgb(43,41,29)" stroke-width="1" opacity="0.39215686274509803" d="M 196.5 134 L 197 136.5 L 196 136.5 L 196.5 134 Z " /><path fill="rgb(43,41,29)" stroke="rgb(43,41,29)" stroke-width="1" opacity="0.39215686274509803" d="M 216.5 134 L 219 134.5 L 216.5 135 L 216.5 134 Z " /><path fill="rgb(43,41,29)" stroke="rgb(43,41,29)" stroke-width="1" opacity="0.39215686274509803" d="M 34.5 135 Q 37.1 134.3 36 137 L 32 136.5 L 34.5 135 Z " /><path fill="rgb(43,41,29)" stroke="rgb(43,41,29)" stroke-width="1" opacity="0.39215686274509803" d="M 247.5 135 L 248 140.5 L 247 140.5 L 247.5 135 Z " /><path fill="rgb(43,41,29)" stroke="rgb(43,41,29)" stroke-width="1" opacity="0.39215686274509803" d="M 463.5 135 L 465 136.5 L 465 184 L 463 183.5 L 464 182.5 L 464 136.5 L 463.5 135 Z " /><path fill="rgb(43,41,29)" stroke="rgb(43,41,29)" stroke-width="1" opacity="0.39215686274509803" d="M 42.5 136 Q 44.8 135.3 44 137.5 L 42.5 136 Z " /><path fill="rgb(43,41,29)" stroke="rgb(43,41,29)" stroke-width="1" opacity="0.39215686274509803" d="M 101.5 136 L 109.5 146 L 116 149.5 L 114.5 150 L 105 142.5 L 101.5 136 Z " /><path fill="rgb(43,41,29)" stroke="rgb(43,41,29)" stroke-width="1" opacity="0.39215686274509803" d="M 258.5 136 L 263 136.5 Q 256.1 136.1 253.5 140 L 255.5 137 L 258.5 136 Z " /><path fill="rgb(43,41,29)" stroke="rgb(43,41,29)" stroke-width="1" opacity="0.39215686274509803" d="M 267.5 136 L 268 180.5 L 267 180.5 L 267.5 136 Z " /><path fill="rgb(43,41,29)" stroke="rgb(43,41,29)" stroke-width="1" opacity="0.39215686274509803" d="M 278.5 136 L 282 136.5 L 278.5 137 L 278.5 136 Z " /><path fill="rgb(43,41,29)" stroke="rgb(43,41,29)" stroke-width="1" opacity="0.39215686274509803" d="M 288.5 137 L 293 140.5 L 290.5 139 L 288.5 137 Z " /><path fill="rgb(43,41,29)" stroke="rgb(43,41,29)" stroke-width="1" opacity="0.39215686274509803" d="M 131.5 140 Q 135 142 130.5 144 L 131.5 140 Z " /><path fill="rgb(43,41,29)" stroke="rgb(43,41,29)" stroke-width="1" opacity="0.39215686274509803" d="M 138.5 140 L 139 141.5 L 134.5 148 L 131 147.5 L 136 145.5 L 138.5 140 Z " /><path fill="rgb(43,41,29)" stroke="rgb(43,41,29)" stroke-width="1" opacity="0.39215686274509803" d="M 297.5 141 L 298 143.5 L 297 143.5 L 297.5 141 Z " /><path fill="rgb(43,41,29)" stroke="rgb(43,41,29)" stroke-width="1" opacity="0.39215686274509803" d="M 37.5 142 L 42 144.5 L 40.5 144 Q 36.8 143.3 36 145.5 L 35.5 147 L 35 144.5 L 37.5 142 Z " /><path fill="rgb(43,41,29)" stroke="rgb(43,41,29)" stroke-width="1" opacity="0.39215686274509803" d="M 207.5 142 L 211 143 L 210.5 145 L 207.5 142 Z " /><path fill="rgb(43,41,29)" stroke="rgb(43,41,29)" stroke-width="1" opacity="0.39215686274509803" d="M 247.5 142 L 248.5 146 L 250 145.5 L 249.5 148 Q 245.7 146.7 247.5 142 Z " /><path fill="rgb(43,41,29)" stroke="rgb(43,41,29)" stroke-width="1" opacity="0.39215686274509803" d="M 293.5 142 L 295.5 146 L 297 145.5 L 296.5 148 Q 291.7 146.7 293.5 142 Z " /><path fill="rgb(43,41,29)" stroke="rgb(43,41,29)" stroke-width="1" opacity="0.39215686274509803" d="M 91.5 144 L 92 145.5 L 83.5 160 L 83 158.5 L 91.5 144 Z " /><path fill="rgb(43,41,29)" stroke="rgb(43,41,29)" stroke-width="1" opacity="0.39215686274509803" d="M 127.5 145 L 129 147.5 L 127.5 148 Q 124.5 146.5 127.5 145 Z " /><path fill="rgb(43,41,29)" stroke="rgb(43,41,29)" stroke-width="1" opacity="0.39215686274509803" d="M 210.5 146 L 211 149.5 L 208.5 156 L 208 152.5 L 210.5 146 Z " /><path fill="rgb(43,41,29)" stroke="rgb(43,41,29)" stroke-width="1" opacity="0.39215686274509803" d="M 36.5 148 L 37 151.5 L 36 151.5 L 36.5 148 Z " /><path fill="rgb(43,41,29)" stroke="rgb(43,41,29)" stroke-width="1" opacity="0.39215686274509803" d="M 313.5 148 L 312.5 150 L 313.5 148 Z " /><path fill="rgb(43,41,29)" stroke="rgb(43,41,29)" stroke-width="1" opacity="0.39215686274509803" d="M 325 148 L 331 149.5 L 325 150 L 325 148 Z " /><path fill="rgb(43,41,29)" stroke="rgb(43,41,29)" stroke-width="1" opacity="0.39215686274509803" d="M 353.5 148 L 358 149.5 L 350.5 150 L 350.5 149 L 353.5 148 Z " /><path fill="rgb(43,41,29)" stroke="rgb(43,41,29)" stroke-width="1" opacity="0.39215686274509803" d="M 323.5 149 L 322.5 151 L 318.5 154 L 321.5 150 L 323.5 149 Z " /><path fill="rgb(43,41,29)" stroke="rgb(43,41,29)" stroke-width="1" opacity="0.39215686274509803" d="M 403 149 L 405 149.5 L 404 151.5 L 404.5 153 L 402 151.5 L 403 149 Z " /><path fill="rgb(43,41,29)" stroke="rgb(43,41,29)" stroke-width="1" opacity="0.39215686274509803" d="M 416.5 149 Q 421.1 147.8 419 153 Q 415.6 152.3 414.5 155 L 416.5 152 Q 419.1 152.7 418 150 L 416.5 149 Z " /><path fill="rgb(43,41,29)" stroke="rgb(43,41,29)" stroke-width="1" opacity="0.39215686274509803" d="M 433.5 149 L 442 149.5 L 433.5 150 L 433.5 149 Z " /><path fill="rgb(43,41,29)" stroke="rgb(43,41,29)" stroke-width="1" opacity="0.39215686274509803" d="M 117.5 150 L 122 151.5 L 82.5 175 L 83.5 173 L 109.5 159 L 120 151.5 Q 116.7 151.6 117.5 150 Z " /><path fill="rgb(43,41,29)" stroke="rgb(43,41,29)" stroke-width="1" opacity="0.39215686274509803" d="M 306.5 150 L 310 150.5 L 306.5 151 L 306.5 150 Z " /><path fill="rgb(43,41,29)" stroke="rgb(43,41,29)" stroke-width="1" opacity="0.39215686274509803" d="M 345.5 150 L 347 150.5 L 339 155.5 L 338 160.5 Q 339.4 163.1 344 162.5 L 341.5 164 L 337 160.5 Q 337.1 154.1 341.5 152 L 345.5 150 Z " /><path fill="rgb(43,41,29)" stroke="rgb(43,41,29)" stroke-width="1" opacity="0.39215686274509803" d="M 373 150 L 375 150.5 L 374.5 152 L 378 154.5 L 376.5 154 L 373 151.5 L 373 150 Z " /><path fill="rgb(43,41,29)" stroke="rgb(43,41,29)" stroke-width="1" opacity="0.39215686274509803" d="M 377.5 150 L 388 150.5 L 377.5 151 L 377.5 150 Z " /><path fill="rgb(43,41,29)" stroke="rgb(43,41,29)" stroke-width="1" opacity="0.39215686274509803" d="M 393.5 150 L 394 151.5 L 390.5 154 L 390.5 153 L 393 151.5 L 393.5 150 Z " /><path fill="rgb(43,41,29)" stroke="rgb(43,41,29)" stroke-width="1" opacity="0.39215686274509803" d="M 429.5 150 L 431 150.5 L 428.5 152 L 429.5 150 Z " /><path fill="rgb(43,41,29)" stroke="rgb(43,41,29)" stroke-width="1" opacity="0.39215686274509803" d="M 43.5 151 L 45 154.5 L 43 153.5 L 43.5 151 Z " /><path fill="rgb(43,41,29)" stroke="rgb(43,41,29)" stroke-width="1" opacity="0.39215686274509803" d="M 301 151 L 303 151.5 Q 300.8 152.8 303.5 154 L 306 155.5 L 304.5 155 L 301 154 L 301 151 Z " /><path fill="rgb(43,41,29)" stroke="rgb(43,41,29)" stroke-width="1" opacity="0.39215686274509803" d="M 363.5 151 L 366.5 155 L 363.5 151 Z " /><path fill="rgb(43,41,29)" stroke="rgb(43,41,29)" stroke-width="1" opacity="0.39215686274509803" d="M 447.5 151 L 450.5 155 L 447.5 151 Z " /><path fill="rgb(43,41,29)" stroke="rgb(43,41,29)" stroke-width="1" opacity="0.39215686274509803" d="M 426.5 152 L 421 158.5 Q 422.1 161.8 419.5 161 L 420 159.5 L 424 153 L 426.5 152 Z " /><path fill="rgb(43,41,29)" stroke="rgb(43,41,29)" stroke-width="1" opacity="0.39215686274509803" d="M 201.5 153 L 202 155.5 L 201 155.5 L 201.5 153 Z " /><path fill="rgb(43,41,29)" stroke="rgb(43,41,29)" stroke-width="1" opacity="0.39215686274509803" d="M 348.5 153 L 350 153.5 L 347.5 155 L 348.5 153 Z " /><path fill="rgb(43,41,29)" stroke="rgb(43,41,29)" stroke-width="1" opacity="0.39215686274509803" d="M 354.5 153 L 357 154.5 L 355.5 154 L 354.5 153 Z " /><path fill="rgb(43,41,29)" stroke="rgb(43,41,29)" stroke-width="1" opacity="0.39215686274509803" d="M 406.5 153 Q 408.8 153.8 408 157.5 L 406.5 161 L 406 158.5 L 407 154.5 L 406.5 153 Z " /><path fill="rgb(43,41,29)" stroke="rgb(43,41,29)" stroke-width="1" opacity="0.39215686274509803" d="M 473.5 154 L 474 183.5 L 473 183.5 L 473.5 154 Z " /><path fill="rgb(43,41,29)" stroke="rgb(43,41,29)" stroke-width="1" opacity="0.39215686274509803" d="M 317.5 155 L 316.5 157 L 317.5 155 Z " /><path fill="rgb(43,41,29)" stroke="rgb(43,41,29)" stroke-width="1" opacity="0.39215686274509803" d="M 323.5 155 Q 324.8 158.8 329 158 Q 330.1 161.3 326 160 L 323.5 155 Z " /><path fill="rgb(43,41,29)" stroke="rgb(43,41,29)" stroke-width="1" opacity="0.39215686274509803" d="M 388.5 155 L 392 162.5 L 391 162.5 L 388.5 155 Z " /><path fill="rgb(43,41,29)" stroke="rgb(43,41,29)" stroke-width="1" opacity="0.39215686274509803" d="M 430.5 155 L 429.5 157 L 430.5 155 Z " /><path fill="rgb(43,41,29)" stroke="rgb(43,41,29)" stroke-width="1" opacity="0.39215686274509803" d="M 320.5 156 L 321 158 L 319 157.5 L 320.5 156 Z " /><path fill="rgb(43,41,29)" stroke="rgb(43,41,29)" stroke-width="1" opacity="0.39215686274509803" d="M 346.5 156 L 347 160.5 L 345 161.5 L 346.5 156 Z " /><path fill="rgb(43,41,29)" stroke="rgb(43,41,29)" stroke-width="1" opacity="0.39215686274509803" d="M 367.5 156 L 368 158.5 L 367 158.5 L 367.5 156 Z " /><path fill="rgb(43,41,29)" stroke="rgb(43,41,29)" stroke-width="1" opacity="0.39215686274509803" d="M 378.5 156 L 379.5 158 L 378.5 156 Z " /><path fill="rgb(43,41,29)" stroke="rgb(43,41,29)" stroke-width="1" opacity="0.39215686274509803" d="M 413.5 156 L 413 157.5 Q 414.1 160.8 411.5 160 L 412 158.5 L 413.5 156 Z " /><path fill="rgb(43,41,29)" stroke="rgb(43,41,29)" stroke-width="1" opacity="0.39215686274509803" d="M 452.5 157 L 454 160.5 L 453 160.5 L 452.5 157 Z " /><path fill="rgb(43,41,29)" stroke="rgb(43,41,29)" stroke-width="1" opacity="0.39215686274509803" d="M 45.5 158 L 46.5 160 Q 43.7 160.7 45.5 158 Z " /><path fill="rgb(43,41,29)" stroke="rgb(43,41,29)" stroke-width="1" opacity="0.39215686274509803" d="M 305.5 158 L 306 178.5 L 305 178.5 L 305.5 158 Z " /><path fill="rgb(43,41,29)" stroke="rgb(43,41,29)" stroke-width="1" opacity="0.39215686274509803" d="M 428.5 158 L 429 160.5 L 428 160.5 L 428.5 158 Z " /><path fill="rgb(43,41,29)" stroke="rgb(43,41,29)" stroke-width="1" opacity="0.39215686274509803" d="M 318.5 159 L 316 162.5 L 315.5 165 L 315 162.5 L 318.5 159 Z " /><path fill="rgb(43,41,29)" stroke="rgb(43,41,29)" stroke-width="1" opacity="0.39215686274509803" d="M 380.5 159 L 382 161.5 L 380 160.5 L 380.5 159 Z " /><path fill="rgb(43,41,29)" stroke="rgb(43,41,29)" stroke-width="1" opacity="0.39215686274509803" d="M 358.5 160 Q 360.8 159.3 360 161.5 L 358.5 164 L 358 162.5 L 358.5 160 Z " /><path fill="rgb(43,41,29)" stroke="rgb(43,41,29)" stroke-width="1" opacity="0.39215686274509803" d="M 368.5 160 L 369 183.5 L 368 183.5 L 368.5 160 Z " /><path fill="rgb(43,41,29)" stroke="rgb(43,41,29)" stroke-width="1" opacity="0.39215686274509803" d="M 46.5 161 L 48 163.5 L 47 163.5 L 46.5 161 Z " /><path fill="rgb(43,41,29)" stroke="rgb(43,41,29)" stroke-width="1" opacity="0.39215686274509803" d="M 199.5 161 L 199 162.5 L 198.5 164 L 198 162.5 L 199.5 161 Z " /><path fill="rgb(43,41,29)" stroke="rgb(43,41,29)" stroke-width="1" opacity="0.39215686274509803" d="M 427.5 162 L 434 163.5 L 428.5 164 L 427.5 162 Z " /><path fill="rgb(43,41,29)" stroke="rgb(43,41,29)" stroke-width="1" opacity="0.39215686274509803" d="M 454.5 162 L 455 166.5 L 454 166.5 L 454.5 162 Z " /><path fill="rgb(43,41,29)" stroke="rgb(43,41,29)" stroke-width="1" opacity="0.39215686274509803" d="M 81.5 163 L 81 164.5 L 74 176.5 Q 75.3 179.3 76.5 177 L 78.5 176 L 77.5 178 L 74.5 179 L 73 176.5 L 81.5 163 Z " /><path fill="rgb(43,41,29)" stroke="rgb(43,41,29)" stroke-width="1" opacity="0.39215686274509803" d="M 410.5 163 L 409.5 165 L 410.5 163 Z " /><path fill="rgb(43,41,29)" stroke="rgb(43,41,29)" stroke-width="1" opacity="0.39215686274509803" d="M 435.5 163 L 444 163.5 L 435.5 164 L 435.5 163 Z " /><path fill="rgb(43,41,29)" stroke="rgb(43,41,29)" stroke-width="1" opacity="0.39215686274509803" d="M 204.5 164 L 205 166.5 L 203 167.5 L 204.5 164 Z " /><path fill="rgb(43,41,29)" stroke="rgb(43,41,29)" stroke-width="1" opacity="0.39215686274509803" d="M 197.5 165 L 197 166.5 L 196.5 168 L 196 166.5 L 197.5 165 Z " /><path fill="rgb(43,41,29)" stroke="rgb(43,41,29)" stroke-width="1" opacity="0.39215686274509803" d="M 358.5 165 L 357.5 167 L 349.5 169 L 349.5 168 L 358.5 165 Z " /><path fill="rgb(43,41,29)" stroke="rgb(43,41,29)" stroke-width="1" opacity="0.39215686274509803" d="M 315.5 166 L 316 175.5 L 315 175.5 L 315.5 166 Z " /><path fill="rgb(43,41,29)" stroke="rgb(43,41,29)" stroke-width="1" opacity="0.39215686274509803" d="M 383.5 166 L 384.5 168 L 383.5 166 Z " /><path fill="rgb(43,41,29)" stroke="rgb(43,41,29)" stroke-width="1" opacity="0.39215686274509803" d="M 403.5 166 L 404 167.5 L 402.5 170 L 402 167.5 L 403.5 166 Z " /><path fill="rgb(43,41,29)" stroke="rgb(43,41,29)" stroke-width="1" opacity="0.39215686274509803" d="M 42.5 167 L 44 169.5 L 42 168.5 L 42.5 167 Z " /><path fill="rgb(43,41,29)" stroke="rgb(43,41,29)" stroke-width="1" opacity="0.39215686274509803" d="M 427.5 167 L 428 171.5 L 427 171.5 L 427.5 167 Z " /><path fill="rgb(43,41,29)" stroke="rgb(43,41,29)" stroke-width="1" opacity="0.39215686274509803" d="M 202.5 169 L 202 170.5 L 201.5 173 L 201 170.5 L 202.5 169 Z " /><path fill="rgb(43,41,29)" stroke="rgb(43,41,29)" stroke-width="1" opacity="0.39215686274509803" d="M 344.5 169 L 346 169.5 L 340.5 173 L 341.5 171 L 344.5 169 Z " /><path fill="rgb(43,41,29)" stroke="rgb(43,41,29)" stroke-width="1" opacity="0.39215686274509803" d="M 51.5 171 L 56 177.5 L 54 176.5 L 51.5 171 Z " /><path fill="rgb(43,41,29)" stroke="rgb(43,41,29)" stroke-width="1" opacity="0.39215686274509803" d="M 358.5 171 L 359 174.5 L 358 174.5 L 358.5 171 Z " /><path fill="rgb(43,41,29)" stroke="rgb(43,41,29)" stroke-width="1" opacity="0.39215686274509803" d="M 401.5 171 L 400.5 173 L 401.5 171 Z " /><path fill="rgb(43,41,29)" stroke="rgb(43,41,29)" stroke-width="1" opacity="0.39215686274509803" d="M 349.5 172 L 351 172.5 L 346 176.5 L 345 179.5 L 345 181.5 L 347.5 184 L 350.5 185 L 353 184 Q 354.3 187.3 349.5 186 L 344 181.5 L 345 175 L 347 175 Q 345.9 172.3 348.5 173 L 349.5 172 Z " /><path fill="rgb(43,41,29)" stroke="rgb(43,41,29)" stroke-width="1" opacity="0.39215686274509803" d="M 428.5 173 Q 429 179.5 433.5 182 L 437 183.5 L 435.5 184 L 429 178.5 L 428.5 173 Z " /><path fill="rgb(43,41,29)" stroke="rgb(43,41,29)" stroke-width="1" opacity="0.39215686274509803" d="M 45.5 174 Q 47.8 173.3 47 175.5 L 50 179.5 L 47 177.5 L 45.5 174 Z " /><path fill="rgb(43,41,29)" stroke="rgb(43,41,29)" stroke-width="1" opacity="0.39215686274509803" d="M 199.5 174 L 199 175.5 L 195 181.5 L 195.5 183 Q 191.7 180.7 197 178.5 L 199.5 174 Z " /><path fill="rgb(43,41,29)" stroke="rgb(43,41,29)" stroke-width="1" opacity="0.39215686274509803" d="M 397.5 174 L 399.5 175 L 401 174.5 L 398.5 179 L 397.5 174 Z " /><path fill="rgb(43,41,29)" stroke="rgb(43,41,29)" stroke-width="1" opacity="0.39215686274509803" d="M 337.5 175 L 336 177.5 L 335.5 182 L 335 177.5 L 337.5 175 Z " /><path fill="rgb(43,41,29)" stroke="rgb(43,41,29)" stroke-width="1" opacity="0.39215686274509803" d="M 358.5 176 L 360 178.5 L 356.5 184 L 358 181.5 L 358.5 176 Z " /><path fill="rgb(43,41,29)" stroke="rgb(43,41,29)" stroke-width="1" opacity="0.39215686274509803" d="M 388.5 176 L 390 178.5 L 388 177.5 L 388.5 176 Z " /><path fill="rgb(43,41,29)" stroke="rgb(43,41,29)" stroke-width="1" opacity="0.39215686274509803" d="M 418.5 176 L 419.5 178 L 418.5 176 Z " /><path fill="rgb(43,41,29)" stroke="rgb(43,41,29)" stroke-width="1" opacity="0.39215686274509803" d="M 453.5 176 L 456 177.5 Q 455.4 183.4 451.5 186 L 453 183.5 L 455 177 L 453.5 176 Z " /><path fill="rgb(43,41,29)" stroke="rgb(43,41,29)" stroke-width="1" opacity="0.39215686274509803" d="M 403.5 177 L 404 178.5 L 402.5 181 L 402 179.5 L 403.5 177 Z " /><path fill="rgb(43,41,29)" stroke="rgb(43,41,29)" stroke-width="1" opacity="0.39215686274509803" d="M 188.5 178 L 189 179.5 L 184 183.5 L 188.5 178 Z " /><path fill="rgb(43,41,29)" stroke="rgb(43,41,29)" stroke-width="1" opacity="0.39215686274509803" d="M 452.5 178 L 452 179.5 Q 452.8 181.8 450.5 181 L 446.5 184 L 447.5 182 L 452.5 178 Z " /><path fill="rgb(43,41,29)" stroke="rgb(43,41,29)" stroke-width="1" opacity="0.39215686274509803" d="M 58.5 181 L 61.5 185 L 58.5 181 Z " /><path fill="rgb(43,41,29)" stroke="rgb(43,41,29)" stroke-width="1" opacity="0.39215686274509803" d="M 51.5 182 L 52.5 184 L 51.5 182 Z " /><path fill="rgb(43,41,29)" stroke="rgb(43,41,29)" stroke-width="1" opacity="0.39215686274509803" d="M 421.5 182 L 423.5 185 L 421.5 182 Z " /><path fill="rgb(43,41,29)" stroke="rgb(43,41,29)" stroke-width="1" opacity="0.39215686274509803" d="M 193.5 183 L 192 185.5 Q 192.8 187.8 190.5 187 L 181 195.5 L 193.5 183 Z " /><path fill="rgb(43,41,29)" stroke="rgb(43,41,29)" stroke-width="1" opacity="0.39215686274509803" d="M 266.5 183 L 267 184.5 L 265 185.5 L 266.5 183 Z " /><path fill="rgb(43,41,29)" stroke="rgb(43,41,29)" stroke-width="1" opacity="0.39215686274509803" d="M 278.5 184 L 279.5 186 L 278.5 184 Z " /><path fill="rgb(43,41,29)" stroke="rgb(43,41,29)" stroke-width="1" opacity="0.39215686274509803" d="M 335.5 184 Q 337.8 183.3 337 185.5 L 335.5 184 Z " /><path fill="rgb(43,41,29)" stroke="rgb(43,41,29)" stroke-width="1" opacity="0.39215686274509803" d="M 370.5 184 L 375 185 L 373.5 188 L 373.5 186 L 369 185.5 L 370.5 184 Z " /><path fill="rgb(43,41,29)" stroke="rgb(43,41,29)" stroke-width="1" opacity="0.39215686274509803" d="M 441.5 184 L 445 184.5 L 441.5 185 L 441.5 184 Z " /><path fill="rgb(43,41,29)" stroke="rgb(43,41,29)" stroke-width="1" opacity="0.39215686274509803" d="M 282.5 185 L 285 186 L 284.5 190 L 260 190 L 260.5 188 L 261.5 189 L 284 189 Q 285.3 186 281.5 187 L 282.5 185 Z " /><path fill="rgb(43,41,29)" stroke="rgb(43,41,29)" stroke-width="1" opacity="0.39215686274509803" d="M 63.5 186 L 64.5 188 L 63.5 186 Z " /><path fill="rgb(43,41,29)" stroke="rgb(43,41,29)" stroke-width="1" opacity="0.39215686274509803" d="M 301.5 186 L 304 186.5 L 300 188.5 L 300.5 190 Q 297 188 301.5 186 Z " /><path fill="rgb(43,41,29)" stroke="rgb(43,41,29)" stroke-width="1" opacity="0.39215686274509803" d="M 318.5 186 L 321 187.5 L 319.5 190 L 302 189.5 L 320 189 Q 321.1 186.3 318.5 187 L 318.5 186 Z " /><path fill="rgb(43,41,29)" stroke="rgb(43,41,29)" stroke-width="1" opacity="0.39215686274509803" d="M 358.5 186 L 363 189.5 L 359.5 187 L 358.5 186 Z " /><path fill="rgb(43,41,29)" stroke="rgb(43,41,29)" stroke-width="1" opacity="0.39215686274509803" d="M 425.5 186 L 430 188.5 L 428.5 189 L 425.5 186 Z " /><path fill="rgb(43,41,29)" stroke="rgb(43,41,29)" stroke-width="1" opacity="0.39215686274509803" d="M 449.5 186 L 447.5 189 L 446 188.5 L 449.5 186 Z " /><path fill="rgb(43,41,29)" stroke="rgb(43,41,29)" stroke-width="1" opacity="0.39215686274509803" d="M 476.5 186 L 480 187.5 L 478.5 190 L 471 189.5 L 479 189 Q 480.3 186 476.5 187 L 476.5 186 Z " /><path fill="rgb(43,41,29)" stroke="rgb(43,41,29)" stroke-width="1" opacity="0.39215686274509803" d="M 337.5 187 L 342 189.5 L 340.5 190 L 337.5 187 Z " /><path fill="rgb(43,41,29)" stroke="rgb(43,41,29)" stroke-width="1" opacity="0.39215686274509803" d="M 356.5 187 L 355.5 189 L 351.5 191 L 351 189 L 356.5 187 Z " /><path fill="rgb(43,41,29)" stroke="rgb(43,41,29)" stroke-width="1" opacity="0.39215686274509803" d="M 399.5 187 L 400 188.5 L 397.5 192 L 394 189.5 L 395.5 190 L 399 188.5 L 399.5 187 Z " /><path fill="rgb(43,41,29)" stroke="rgb(43,41,29)" stroke-width="1" opacity="0.39215686274509803" d="M 457.5 187 L 459.5 189 L 470 189.5 L 458 190 L 457.5 187 Z " /><path fill="rgb(43,41,29)" stroke="rgb(43,41,29)" stroke-width="1" opacity="0.39215686274509803" d="M 56.5 188 L 59.5 192 L 56.5 188 Z " /><path fill="rgb(43,41,29)" stroke="rgb(43,41,29)" stroke-width="1" opacity="0.39215686274509803" d="M 178.5 189 L 175.5 193 L 178.5 189 Z " /><path fill="rgb(43,41,29)" stroke="rgb(43,41,29)" stroke-width="1" opacity="0.39215686274509803" d="M 431.5 189 L 434 190.5 L 432.5 190 L 431.5 189 Z " /><path fill="rgb(43,41,29)" stroke="rgb(43,41,29)" stroke-width="1" opacity="0.39215686274509803" d="M 67.5 190 L 70 191.5 L 68.5 192 L 67.5 190 Z " /><path fill="rgb(43,41,29)" stroke="rgb(43,41,29)" stroke-width="1" opacity="0.39215686274509803" d="M 346.5 190 Q 350.3 189 349 192 L 345 191.5 L 346.5 190 Z " /><path fill="rgb(43,41,29)" stroke="rgb(43,41,29)" stroke-width="1" opacity="0.39215686274509803" d="M 61.5 193 L 62.5 195 L 61.5 193 Z " /><path fill="rgb(43,41,29)" stroke="rgb(43,41,29)" stroke-width="1" opacity="0.39215686274509803" d="M 172.5 194 L 170.5 197 L 169 196.5 L 172.5 194 Z " /><path fill="rgb(43,41,29)" stroke="rgb(43,41,29)" stroke-width="1" opacity="0.39215686274509803" d="M 73.5 195 L 77 197.5 L 75.5 197 L 73.5 195 Z " /><path fill="rgb(43,41,29)" stroke="rgb(43,41,29)" stroke-width="1" opacity="0.39215686274509803" d="M 167.5 197 L 165.5 200 L 167.5 197 Z " /><path fill="rgb(43,41,29)" stroke="rgb(43,41,29)" stroke-width="1" opacity="0.39215686274509803" d="M 78.5 198 L 79.5 200 L 78.5 198 Z " /><path fill="rgb(43,41,29)" stroke="rgb(43,41,29)" stroke-width="1" opacity="0.39215686274509803" d="M 177.5 198 L 176.5 200 L 177.5 198 Z " /><path fill="rgb(43,41,29)" stroke="rgb(43,41,29)" stroke-width="1" opacity="0.39215686274509803" d="M 70.5 200 L 72.5 203 L 70.5 200 Z " /><path fill="rgb(43,41,29)" stroke="rgb(43,41,29)" stroke-width="1" opacity="0.39215686274509803" d="M 118.5 201 L 128.5 201 L 130 202.5 L 129.5 210 L 129 202 L 118.5 202 L 117.5 203 L 118.5 201 Z " /><path fill="rgb(43,41,29)" stroke="rgb(43,41,29)" stroke-width="1" opacity="0.39215686274509803" d="M 160.5 201 L 162 201.5 L 157.5 204 L 158.5 202 L 160.5 201 Z " /><path fill="rgb(43,41,29)" stroke="rgb(43,41,29)" stroke-width="1" opacity="0.39215686274509803" d="M 173.5 201 L 171.5 204 L 168.5 205 L 168.5 204 L 173.5 201 Z " /><path fill="rgb(43,41,29)" stroke="rgb(43,41,29)" stroke-width="1" opacity="0.39215686274509803" d="M 74.5 203 L 77 204.5 L 75.5 205 L 74.5 203 Z " /><path fill="rgb(43,41,29)" stroke="rgb(43,41,29)" stroke-width="1" opacity="0.39215686274509803" d="M 117.5 204 L 118 206.5 L 117 206.5 L 117.5 204 Z " /><path fill="rgb(43,41,29)" stroke="rgb(43,41,29)" stroke-width="1" opacity="0.39215686274509803" d="M 153 204 L 156 204.5 L 153.5 206 L 153 204 Z " /><path fill="rgb(43,41,29)" stroke="rgb(43,41,29)" stroke-width="1" opacity="0.39215686274509803" d="M 148.5 206 L 151 206.5 L 146.5 208 L 146.5 207 L 148.5 206 Z " /><path fill="rgb(43,41,29)" stroke="rgb(43,41,29)" stroke-width="1" opacity="0.39215686274509803" d="M 81.5 207 L 85 208 L 84.5 210 L 81.5 207 Z " /><path fill="rgb(43,41,29)" stroke="rgb(43,41,29)" stroke-width="1" opacity="0.39215686274509803" d="M 98.5 207 L 102 208.5 L 100.5 209 L 98.5 207 Z " /><path fill="rgb(43,41,29)" stroke="rgb(43,41,29)" stroke-width="1" opacity="0.39215686274509803" d="M 162.5 207 L 164 207.5 L 161.5 209 L 162.5 207 Z " /><path fill="rgb(43,41,29)" stroke="rgb(43,41,29)" stroke-width="1" opacity="0.39215686274509803" d="M 107.5 210 Q 110.9 209.1 109 214.5 L 108 214.5 L 107.5 210 Z " /><path fill="rgb(43,41,29)" stroke="rgb(43,41,29)" stroke-width="1" opacity="0.39215686274509803" d="M 128.5 211 L 129 216.5 L 128 216.5 L 128.5 211 Z " /><path fill="rgb(43,41,29)" stroke="rgb(43,41,29)" stroke-width="1" opacity="0.39215686274509803" d="M 136.5 211 L 138 214.5 L 136 213.5 L 136.5 211 Z " /><path fill="rgb(43,41,29)" stroke="rgb(43,41,29)" stroke-width="1" opacity="0.39215686274509803" d="M 100.5 214 Q 104.3 213.3 105 215.5 L 103.5 216 L 100.5 215 L 100.5 214 Z " /><path fill="rgb(43,41,29)" stroke="rgb(43,41,29)" stroke-width="1" opacity="0.39215686274509803" d="M 143.5 214 L 146 214.5 L 143.5 215 L 143.5 214 Z " /><path fill="rgb(43,41,29)" stroke="rgb(43,41,29)" stroke-width="1" opacity="0.39215686274509803" d="M 119.5 218 L 120 221.5 L 119 221.5 L 119.5 218 Z " /><path fill="rgb(43,41,29)" stroke="rgb(43,41,29)" stroke-width="1" opacity="0.39215686274509803" d="M 127.5 220 L 128 223.5 L 127 223.5 L 127.5 220 Z " /><path fill="rgb(43,41,29)" stroke="rgb(43,41,29)" stroke-width="1" opacity="0.39215686274509803" d="M 120.5 226 L 121 233.5 L 120 233.5 L 120.5 226 Z " /><path fill="rgb(43,41,29)" stroke="rgb(43,41,29)" stroke-width="1" opacity="0.39215686274509803" d="M 126.5 227 L 127 229.5 L 126 229.5 L 126.5 227 Z " /><path fill="rgb(43,41,29)" stroke="rgb(43,41,29)" stroke-width="1" opacity="0.39215686274509803" d="M 122.5 239 L 125 239.5 L 122.5 240 L 122.5 239 Z " /><path fill="rgb(0,0,0)" stroke="rgb(0,0,0)" stroke-width="1" opacity="0" d="M 0 0 L 620 0 L 620 250 L 0 250 L 0 0 Z M 123 20 L 120 23 L 120 34 L 119 35 L 120 39 L 117 57 L 120 58 L 122 57 Q 127 56 129 58 L 131 57 L 126 26 L 126 24 L 125 22 L 123 20 Z M 322 43 L 320 45 L 311 46 L 307 49 L 313 51 L 313 98 L 314 99 L 313 107 Q 317 108 319 105 L 319 107 L 321 106 L 327 108 L 338 108 L 347 104 L 355 92 L 355 81 L 350 71 L 341 66 Q 331 65 328 69 Q 324 68 325 71 L 323 70 L 323 50 L 324 49 L 323 47 L 323 45 Q 324 42 322 43 Z M 458 43 L 458 45 L 449 47 Q 443 46 445 50 L 451 51 L 451 102 L 449 104 L 447 103 L 445 107 L 467 107 L 467 106 L 461 102 L 461 48 L 462 47 L 461 45 Q 462 42 458 43 Z M 103 45 L 89 51 L 86 51 L 76 57 Q 73 56 74 59 L 68 62 L 66 65 L 65 64 L 56 75 L 53 76 L 43 92 L 36 110 L 36 119 L 41 119 L 46 106 L 45 104 L 49 95 L 51 95 L 51 94 L 51 92 L 60 79 Q 62 74 67 74 L 68 70 L 75 67 L 76 64 L 83 60 L 102 52 L 105 52 L 108 50 Q 110 42 103 45 Z M 139 45 L 136 49 L 140 52 L 141 51 L 149 54 L 151 54 L 164 60 L 165 63 Q 172 63 175 69 Q 174 71 177 70 L 190 85 L 194 93 Q 197 94 195 96 L 200 106 L 200 108 L 206 119 L 210 118 L 211 116 L 207 103 L 205 101 L 206 99 L 202 92 Q 198 90 201 89 L 196 83 Q 197 79 194 80 L 190 74 L 186 71 L 185 67 L 182 66 L 163 52 L 147 46 L 139 45 Z M 276 48 Q 273 49 275 51 Q 276 53 274 52 L 274 54 L 272 54 L 266 71 L 266 73 L 262 79 Q 261 88 256 94 Q 257 97 255 96 L 255 98 L 253 101 Q 252 104 249 103 L 247 107 L 267 107 L 267 106 L 261 103 Q 260 95 264 91 L 265 88 L 285 88 L 291 102 L 287 104 L 285 107 L 307 107 L 308 106 L 303 102 L 296 87 L 296 85 L 295 84 L 295 83 L 291 75 L 291 73 L 285 62 L 281 50 Q 280 47 276 48 Z M 532 55 L 529 56 L 526 65 L 517 71 L 519 73 L 522 72 L 523 74 L 523 96 Q 525 97 524 102 L 524 104 L 530 108 Q 538 109 542 106 L 545 103 L 544 101 L 536 102 L 533 98 L 533 73 L 535 72 L 537 72 L 539 73 Q 540 71 545 72 L 546 71 L 545 67 L 533 68 L 533 57 L 532 55 Z M 373 66 L 369 68 L 367 68 L 366 70 L 362 72 L 361 75 Q 359 82 363 85 Q 362 87 365 86 L 365 88 L 382 94 Q 385 96 385 101 L 380 104 L 371 103 Q 365 101 364 95 L 361 93 L 360 96 L 361 104 Q 363 108 365 105 L 371 108 Q 383 110 389 105 L 393 99 Q 394 90 390 88 Q 388 83 387 86 L 375 80 L 372 80 L 369 78 L 369 76 L 370 74 L 374 71 L 382 72 L 387 79 Q 386 81 389 80 L 390 79 L 390 70 L 381 66 L 373 66 Z M 416 66 L 405 72 L 401 78 L 399 82 Q 397 93 401 99 Q 406 105 415 108 L 428 108 L 438 102 L 443 95 L 444 91 Q 444 81 440 76 Q 434 65 416 66 Z M 481 66 L 474 68 L 472 68 L 472 69 L 468 69 L 468 71 L 472 72 L 474 75 L 474 100 L 475 103 L 483 108 Q 495 110 500 103 Q 502 102 501 105 Q 502 108 507 107 L 509 107 L 516 107 L 516 106 L 511 102 L 512 99 L 511 96 L 511 81 L 512 80 Q 513 70 511 66 L 497 69 L 495 71 L 495 72 L 500 72 L 501 75 L 500 78 L 501 79 L 501 96 L 501 98 Q 500 102 494 101 L 491 102 L 489 101 L 487 101 L 484 98 L 484 68 L 481 66 Z M 565 66 L 557 70 L 550 79 Q 551 81 549 80 L 549 82 L 548 85 L 549 96 L 552 102 L 563 108 Q 576 110 582 104 L 586 99 Q 587 95 585 94 L 582 98 Q 579 97 580 100 L 575 102 Q 567 102 563 99 L 558 90 L 559 85 L 585 85 L 586 84 L 585 77 L 582 72 L 573 66 L 565 66 Z M 167 80 L 152 89 Q 150 92 149 90 L 135 99 L 133 99 L 132 101 L 128 103 L 125 106 L 124 105 L 102 119 L 105 132 L 108 126 L 116 120 L 117 121 L 116 121 L 116 122 L 119 121 L 125 123 Q 127 124 126 121 L 130 123 L 129 126 L 133 126 L 133 127 Q 129 126 130 129 L 133 128 L 134 135 L 132 139 L 133 141 L 126 147 Q 128 150 135 148 L 142 137 L 168 84 Q 169 79 167 80 Z M 119 122 L 119 123 L 121 123 L 119 122 Z M 112 123 L 110 125 L 112 125 L 112 123 Z M 45 124 L 36 126 L 28 126 L 23 128 L 16 128 L 10 132 L 15 134 L 27 135 L 29 135 L 34 136 L 32 137 L 36 137 L 38 137 L 42 136 L 46 138 L 49 137 L 49 124 L 45 124 Z M 117 125 L 115 126 L 110 133 L 111 139 L 118 143 Q 123 144 126 141 L 129 137 Q 129 129 125 126 L 124 126 Q 122 124 117 125 Z M 197 125 L 196 128 Q 195 132 197 134 L 196 137 L 199 138 L 206 136 L 211 137 L 211 135 L 215 136 L 219 135 L 221 135 L 229 134 L 233 131 L 230 128 L 225 127 L 197 125 Z M 472 126 L 462 130 Q 457 128 458 132 L 464 134 L 463 136 L 464 137 L 464 183 L 464 185 L 457 188 L 458 190 L 470 190 L 471 189 Q 472 192 479 190 L 480 188 L 474 185 L 474 131 L 475 128 L 472 126 Z M 99 131 L 77 172 L 73 177 L 75 179 L 110 160 L 122 152 L 110 146 L 100 133 Q 101 130 99 131 Z M 248 132 L 247 141 L 247 143 Q 246 147 250 148 L 252 140 L 259 137 L 267 136 L 267 183 L 266 185 Q 265 187 262 186 L 260 190 L 285 190 L 285 186 L 283 185 L 281 186 L 277 181 L 277 137 L 279 137 L 283 136 L 291 139 L 297 148 L 298 144 L 297 138 L 297 136 L 298 134 L 297 132 L 248 132 Z M 38 142 L 35 145 L 38 158 L 44 172 Q 47 173 45 175 L 54 186 Q 53 188 56 187 L 60 192 Q 62 191 61 194 Q 70 203 84 209 L 87 210 Q 89 209 88 212 L 90 211 L 104 216 L 106 215 L 109 215 L 109 210 L 91 205 Q 81 202 75 195 L 73 195 L 70 191 L 67 190 L 65 188 L 62 186 L 50 170 L 48 163 Q 44 161 47 160 L 45 157 L 45 155 L 42 145 L 38 142 Z M 208 142 L 205 143 Q 201 150 200 161 L 195 170 Q 196 172 193 171 L 191 177 L 188 178 L 182 187 Q 179 186 180 189 L 157 204 Q 152 203 153 206 L 149 206 L 136 211 L 138 215 L 146 215 L 172 204 L 192 187 L 200 175 Q 199 172 202 173 L 211 150 L 210 146 L 211 143 L 208 142 Z M 314 148 L 312 150 Q 307 149 306 151 Q 299 149 301 154 L 306 157 L 305 159 L 305 179 L 306 180 L 305 186 Q 300 185 299 189 Q 300 191 302 189 L 303 190 L 320 190 L 321 188 L 318 186 L 315 180 L 315 178 L 316 176 L 316 167 L 315 166 L 319 160 L 321 157 L 323 155 L 326 159 Q 325 161 329 160 L 332 156 L 331 149 L 327 148 Q 324 147 325 150 L 324 149 L 322 150 L 316 158 L 315 158 L 316 153 L 314 148 Z M 354 148 L 342 152 Q 337 154 337 161 L 342 164 L 346 162 Q 348 161 347 156 L 351 153 L 358 155 L 359 160 L 358 163 L 359 165 L 348 169 L 346 169 L 335 178 L 336 183 L 335 185 L 337 188 L 341 190 L 346 190 L 346 192 Q 350 193 349 190 L 352 191 L 358 187 L 360 187 L 365 191 Q 371 190 375 187 Q 376 184 372 185 L 370 185 L 369 161 L 367 155 L 362 150 L 354 148 Z M 391 149 L 390 150 L 374 150 L 373 152 L 377 154 L 386 171 L 388 178 Q 391 179 389 181 L 391 181 L 394 190 L 398 192 L 409 166 L 411 162 Q 410 159 413 160 Q 413 155 417 153 Q 421 154 419 149 L 416 150 Q 407 151 403 149 L 402 152 L 407 155 L 406 162 L 402 168 L 402 171 L 400 175 L 396 174 L 389 156 Q 388 153 392 154 L 394 150 L 391 149 Z M 434 149 L 424 153 L 420 160 L 420 162 Q 417 166 418 175 L 418 177 L 424 185 Q 426 184 425 187 L 433 190 L 435 190 L 437 191 L 448 189 L 452 186 L 456 180 L 455 176 Q 452 175 453 178 L 446 184 L 441 185 L 434 182 L 430 179 Q 427 174 428 167 L 450 167 L 451 168 L 455 167 L 454 159 L 451 155 L 446 150 L 434 149 Z M 119 201 L 117 203 L 119 213 L 119 222 L 120 223 L 120 234 L 122 239 Q 121 241 125 240 L 128 224 L 129 211 L 130 210 L 130 203 L 129 201 L 119 201 Z " /><path fill="rgb(0,0,0)" stroke="rgb(0,0,0)" stroke-width="1" opacity="0" d="M 274.5 64 L 284 83.5 L 277.5 84 L 275.5 84 L 267 84 L 267 80.5 L 269 78.5 L 269 75.5 L 274.5 64 Z " /><path fill="rgb(0,0,0)" stroke="rgb(0,0,0)" stroke-width="1" opacity="0" d="M 417.5 70 L 424.5 71 L 430 75 L 433 83.5 L 433 94.5 L 429 102 L 421.5 104 L 418.5 103 L 412 98.5 L 410 95.5 L 409 82.5 L 410 80.5 L 410 78.5 L 410 76.5 L 415.5 71 L 417.5 70 Z " /><path fill="rgb(0,0,0)" stroke="rgb(0,0,0)" stroke-width="1" opacity="0" d="M 567.5 70 L 574 72 L 576 77.5 L 575.5 80 L 559.5 80 L 558.5 81 L 559 79.5 Q 558.4 74.4 561.5 73 L 567.5 70 Z " /><path fill="rgb(0,0,0)" stroke="rgb(0,0,0)" stroke-width="1" opacity="0" d="M 328.5 72 L 335.5 72 L 341 75 L 342 80 Q 345.3 78.7 344 83.5 L 345 86.5 L 345 88.5 Q 346.1 91.8 343.5 91 L 344 92.5 L 341.5 100 L 340 99.5 L 338.5 102 L 333.5 104 L 325 101 L 323 92.5 L 323 79.5 L 324 76.5 Q 322.8 72.8 326.5 74 L 328.5 72 Z " /><path fill="rgb(0,0,0)" stroke="rgb(0,0,0)" stroke-width="1" opacity="0" d="M 121.5 119 Q 123.8 118.3 123 120.5 L 121.5 119 Z " /><path fill="rgb(0,0,0)" stroke="rgb(0,0,0)" stroke-width="1" opacity="0" d="M 434.5 153 Q 441 152 443 155.5 L 445 159.5 L 445 161.5 L 444.5 163 L 428 163 L 431 154 L 434.5 153 Z " /><path fill="rgb(0,0,0)" stroke="rgb(0,0,0)" stroke-width="1" opacity="0" d="M 357.5 170 L 359 170.5 L 358 174.5 L 358 176.5 Q 359.3 182.8 355.5 184 L 353.5 185 L 351.5 184 L 349.5 184 Q 345.5 184.5 345 181.5 L 345 179.5 L 347 175.5 L 346.5 174 Q 348 176.5 349.5 173 L 357.5 170 Z " /></svg>