<svg width="244" height="250" viewBox="0 0 244 250" version="1.1" xmlns="http://www.w3.org/2000/svg">
<path fill="rgb(208,205,181)" stroke="rgb(208,205,181)" stroke-width="1" opacity="0.996078431372549" d="M 122.5 21 Q 124.8 20.3 124 22.5 L 126 26.5 L 130 57 L 118 57 L 118 51.5 L 121 35.5 L 121 22.5 L 122.5 21 Z " />
<path fill="rgb(208,205,181)" stroke="rgb(208,205,181)" stroke-width="1" opacity="0.996078431372549" d="M 102.5 46 Q 107 45 108 47.5 L 106.5 50 Q 75.3 58.3 58 80.5 L 49 93.5 L 44 105.5 L 41 118 Q 37.2 119 36 116.5 Q 38.5 98 47 85.5 Q 55.9 71.9 68.5 62 L 84.5 52 L 102.5 46 Z " />
<path fill="rgb(208,205,181)" stroke="rgb(208,205,181)" stroke-width="1" opacity="0.996078431372549" d="M 137 46 L 147.5 47 L 166.5 55 Q 180 63 190 74.5 L 204 96.5 L 210 116.5 Q 209.3 118.8 205.5 118 L 204 116.5 L 199 99.5 L 192 86.5 L 175.5 68 L 162.5 59 L 151.5 54 L 139.5 51 L 137 48.5 L 137 46 Z " />
<path fill="rgb(208,205,181)" stroke="rgb(208,205,181)" stroke-width="1" opacity="0.996078431372549" d="M 166.5 81 L 167 84.5 L 134.5 147 L 129.5 148 L 128 145.5 L 133 141.5 L 135 131.5 L 132 123 L 124.5 119 L 115.5 119 L 107 125.5 L 104.5 130 L 103 118 L 166.5 81 Z " />
<path fill="rgb(208,205,181)" stroke="rgb(208,205,181)" stroke-width="1" opacity="0.996078431372549" d="M 46.5 125 L 48 126.5 L 48 137 L 21.5 134 L 20.5 133 L 13.5 133 L 12 131.5 L 13.5 129 L 25.5 128 L 26.5 127 L 45.5 126 L 46.5 125 Z " />
<path fill="rgb(208,205,181)" stroke="rgb(208,205,181)" stroke-width="1" opacity="0.996078431372549" d="M 119.5 125 L 126 128 Q 128.6 130.3 128 136.5 Q 125.8 141.8 118.5 142 L 112 137.5 L 111 132.5 L 114 127 L 119.5 125 Z " />
<path fill="rgb(208,205,181)" stroke="rgb(208,205,181)" stroke-width="1" opacity="0.996078431372549" d="M 197 126 L 227.5 128 L 232 130.5 L 229.5 133 L 197 137 L 197 126 Z " />
<path fill="rgb(208,205,181)" stroke="rgb(208,205,181)" stroke-width="1" opacity="0.996078431372549" d="M 98.5 132 L 109.5 147 L 120 151.5 L 109.5 159 L 98.5 164 L 75.5 178 Q 72.3 176.3 76 174.5 L 98.5 132 Z " />
<path fill="rgb(208,205,181)" stroke="rgb(208,205,181)" stroke-width="1" opacity="0.996078431372549" d="M 206.5 143 L 210 144.5 L 208 156.5 L 201 172.5 Q 191.9 187.4 178.5 198 L 160.5 209 L 146.5 214 L 138.5 215 L 137 211 L 153.5 206 L 170.5 197 L 189 179.5 L 200 161.5 L 204 146.5 L 206.5 143 Z " />
<path fill="rgb(208,205,181)" stroke="rgb(208,205,181)" stroke-width="1" opacity="0.996078431372549" d="M 37.5 144 Q 41.3 143.3 42 145.5 Q 47.6 176.4 68.5 192 Q 78 201 91.5 206 L 97.5 207 L 108 211.5 Q 109.8 216.8 104.5 215 Q 89.7 212.3 78.5 206 Q 63.1 197.9 53 184.5 L 41 164.5 L 37 153.5 L 36 145.5 L 37.5 144 Z " />
<path fill="rgb(208,205,181)" stroke="rgb(208,205,181)" stroke-width="1" opacity="0.996078431372549" d="M 118.5 202 L 129 202 L 129 210.5 L 128 211.5 L 128 219.5 L 127 220.5 L 125 239 Q 120.9 240.7 122 236.5 L 121 235.5 L 119 210.5 L 117 203.5 L 118.5 202 Z " />
<path fill="rgb(43,41,29)" stroke="rgb(43,41,29)" stroke-width="1" opacity="0.39215686274509803" d="M 122.5 20 L 125 21.5 L 126 23.5 L 124 22.5 Q 124.8 20.3 122.5 21 L 121 22.5 L 121 35.5 L 119.5 38 L 119 34.5 L 120 33.5 L 120 22.5 L 122.5 20 Z " />
<path fill="rgb(43,41,29)" stroke="rgb(43,41,29)" stroke-width="1" opacity="0.39215686274509803" d="M 127.5 36 L 128 39.5 L 127 39.5 L 127.5 36 Z " />
<path fill="rgb(43,41,29)" stroke="rgb(43,41,29)" stroke-width="1" opacity="0.39215686274509803" d="M 128.5 42 L 129 45.5 L 128 45.5 L 128.5 42 Z " />
<path fill="rgb(43,41,29)" stroke="rgb(43,41,29)" stroke-width="1" opacity="0.39215686274509803" d="M 102.5 45 Q 108.6 43.8 108 46.5 L 106.5 46 L 98.5 47 L 98.5 46 L 102.5 45 Z " />
<path fill="rgb(43,41,29)" stroke="rgb(43,41,29)" stroke-width="1" opacity="0.39215686274509803" d="M 138.5 45 L 142 45.5 L 138.5 46 L 138.5 45 Z " />
<path fill="rgb(43,41,29)" stroke="rgb(43,41,29)" stroke-width="1" opacity="0.39215686274509803" d="M 143.5 46 L 147 46.5 L 143.5 47 L 143.5 46 Z " />
<path fill="rgb(43,41,29)" stroke="rgb(43,41,29)" stroke-width="1" opacity="0.39215686274509803" d="M 136.5 47 L 140 51.5 L 136 48.5 L 136.5 47 Z " />
<path fill="rgb(43,41,29)" stroke="rgb(43,41,29)" stroke-width="1" opacity="0.39215686274509803" d="M 129.5 48 Q 131.8 50.8 131 56.5 L 130 56.5 L 129.5 48 Z " />
<path fill="rgb(43,41,29)" stroke="rgb(43,41,29)" stroke-width="1" opacity="0.39215686274509803" d="M 107.5 49 L 106.5 51 L 102.5 52 L 102.5 51 L 107.5 49 Z " />
<path fill="rgb(43,41,29)" stroke="rgb(43,41,29)" stroke-width="1" opacity="0.39215686274509803" d="M 99.5 52 L 101 52.5 L 83.5 60 L 83.5 59 L 99.5 52 Z " />
<path fill="rgb(43,41,29)" stroke="rgb(43,41,29)" stroke-width="1" opacity="0.39215686274509803" d="M 144.5 52 L 150 54.5 L 148.5 54 Q 143.7 54 144.5 52 Z " />
<path fill="rgb(43,41,29)" stroke="rgb(43,41,29)" stroke-width="1" opacity="0.39215686274509803" d="M 161.5 52 L 164 53.5 L 162.5 53 L 161.5 52 Z " />
<path fill="rgb(43,41,29)" stroke="rgb(43,41,29)" stroke-width="1" opacity="0.39215686274509803" d="M 81.5 53 L 80.5 55 L 81.5 53 Z " />
<path fill="rgb(43,41,29)" stroke="rgb(43,41,29)" stroke-width="1" opacity="0.39215686274509803" d="M 76.5 56 L 78 56.5 L 74.5 58 L 74.5 57 L 76.5 56 Z " />
<path fill="rgb(43,41,29)" stroke="rgb(43,41,29)" stroke-width="1" opacity="0.39215686274509803" d="M 168.5 56 L 171 57.5 L 169.5 57 L 168.5 56 Z " />
<path fill="rgb(43,41,29)" stroke="rgb(43,41,29)" stroke-width="1" opacity="0.39215686274509803" d="M 157.5 57 L 161 58.5 L 159.5 59 L 157.5 57 Z " />
<path fill="rgb(43,41,29)" stroke="rgb(43,41,29)" stroke-width="1" opacity="0.39215686274509803" d="M 72.5 59 L 71.5 61 L 69.5 62 L 70.5 60 L 72.5 59 Z " />
<path fill="rgb(43,41,29)" stroke="rgb(43,41,29)" stroke-width="1" opacity="0.39215686274509803" d="M 80.5 61 L 79.5 63 L 80.5 61 Z " />
<path fill="rgb(43,41,29)" stroke="rgb(43,41,29)" stroke-width="1" opacity="0.39215686274509803" d="M 165.5 61 L 169 63.5 L 167.5 63 Q 163.5 64 165.5 61 Z " />
<path fill="rgb(43,41,29)" stroke="rgb(43,41,29)" stroke-width="1" opacity="0.39215686274509803" d="M 67.5 62 L 66.5 64 L 67.5 62 Z " />
<path fill="rgb(43,41,29)" stroke="rgb(43,41,29)" stroke-width="1" opacity="0.39215686274509803" d="M 177.5 62 L 179.5 65 L 177.5 62 Z " />
<path fill="rgb(43,41,29)" stroke="rgb(43,41,29)" stroke-width="1" opacity="0.39215686274509803" d="M 64.5 64 L 65 65.5 L 56 73.5 L 64.5 64 Z " />
<path fill="rgb(43,41,29)" stroke="rgb(43,41,29)" stroke-width="1" opacity="0.39215686274509803" d="M 170.5 64 L 172.5 67 L 170.5 64 Z " />
<path fill="rgb(43,41,29)" stroke="rgb(43,41,29)" stroke-width="1" opacity="0.39215686274509803" d="M 74.5 65 L 76 65.5 L 73.5 67 L 74.5 65 Z " />
<path fill="rgb(43,41,29)" stroke="rgb(43,41,29)" stroke-width="1" opacity="0.39215686274509803" d="M 182.5 66 L 185 67 L 186 69.5 L 182.5 66 Z " />
<path fill="rgb(43,41,29)" stroke="rgb(43,41,29)" stroke-width="1" opacity="0.39215686274509803" d="M 71.5 67 L 69.5 70 L 71.5 67 Z " />
<path fill="rgb(43,41,29)" stroke="rgb(43,41,29)" stroke-width="1" opacity="0.39215686274509803" d="M 175.5 68 L 189 82.5 L 183 77.5 L 176.5 70 Q 173.7 70.7 175.5 68 Z " />
<path fill="rgb(43,41,29)" stroke="rgb(43,41,29)" stroke-width="1" opacity="0.39215686274509803" d="M 67.5 71 L 67 72.5 Q 67.8 74.8 65.5 74 L 64 74.5 L 67.5 71 Z " />
<path fill="rgb(43,41,29)" stroke="rgb(43,41,29)" stroke-width="1" opacity="0.39215686274509803" d="M 187.5 71 L 189.5 74 L 187.5 71 Z " />
<path fill="rgb(43,41,29)" stroke="rgb(43,41,29)" stroke-width="1" opacity="0.39215686274509803" d="M 190.5 75 L 193.5 79 L 190.5 75 Z " />
<path fill="rgb(43,41,29)" stroke="rgb(43,41,29)" stroke-width="1" opacity="0.39215686274509803" d="M 59.5 79 L 58.5 81 L 59.5 79 Z " />
<path fill="rgb(43,41,29)" stroke="rgb(43,41,29)" stroke-width="1" opacity="0.39215686274509803" d="M 166.5 80 Q 169.5 79.1 168 83.5 L 167 83.5 L 166.5 81 L 163.5 83 L 164.5 81 L 166.5 80 Z " />
<path fill="rgb(43,41,29)" stroke="rgb(43,41,29)" stroke-width="1" opacity="0.39215686274509803" d="M 194.5 80 Q 196.8 79.3 196 81.5 L 194.5 80 Z " />
<path fill="rgb(43,41,29)" stroke="rgb(43,41,29)" stroke-width="1" opacity="0.39215686274509803" d="M 49.5 82 L 47.5 85 L 49.5 82 Z " />
<path fill="rgb(43,41,29)" stroke="rgb(43,41,29)" stroke-width="1" opacity="0.39215686274509803" d="M 56.5 83 L 56 84.5 L 51.5 91 L 52 89.5 L 56.5 83 Z " />
<path fill="rgb(43,41,29)" stroke="rgb(43,41,29)" stroke-width="1" opacity="0.39215686274509803" d="M 196.5 83 L 197.5 85 L 196.5 83 Z " />
<path fill="rgb(43,41,29)" stroke="rgb(43,41,29)" stroke-width="1" opacity="0.39215686274509803" d="M 190.5 85 L 194 90.5 L 192 89.5 L 190.5 85 Z " />
<path fill="rgb(43,41,29)" stroke="rgb(43,41,29)" stroke-width="1" opacity="0.39215686274509803" d="M 198.5 86 L 200.5 89 Q 198.3 89.8 199 87.5 L 198.5 86 Z " />
<path fill="rgb(43,41,29)" stroke="rgb(43,41,29)" stroke-width="1" opacity="0.39215686274509803" d="M 154.5 87 L 153.5 89 L 154.5 87 Z " />
<path fill="rgb(43,41,29)" stroke="rgb(43,41,29)" stroke-width="1" opacity="0.39215686274509803" d="M 165.5 87 L 166 88.5 L 164 89.5 L 165.5 87 Z " />
<path fill="rgb(43,41,29)" stroke="rgb(43,41,29)" stroke-width="1" opacity="0.39215686274509803" d="M 44.5 90 L 43.5 92 L 44.5 90 Z " />
<path fill="rgb(43,41,29)" stroke="rgb(43,41,29)" stroke-width="1" opacity="0.39215686274509803" d="M 148.5 90 L 149 92 L 146.5 93 L 148.5 90 Z " />
<path fill="rgb(43,41,29)" stroke="rgb(43,41,29)" stroke-width="1" opacity="0.39215686274509803" d="M 200.5 90 L 201.5 92 L 200.5 90 Z " />
<path fill="rgb(43,41,29)" stroke="rgb(43,41,29)" stroke-width="1" opacity="0.39215686274509803" d="M 163.5 91 L 164 92.5 L 161.5 96 L 162 94.5 L 163.5 91 Z " />
<path fill="rgb(43,41,29)" stroke="rgb(43,41,29)" stroke-width="1" opacity="0.39215686274509803" d="M 50.5 92 L 52 92.5 L 50.5 95 Q 47.5 93.5 50.5 92 Z " />
<path fill="rgb(43,41,29)" stroke="rgb(43,41,29)" stroke-width="1" opacity="0.39215686274509803" d="M 194.5 92 L 195.5 94 L 194.5 92 Z " />
<path fill="rgb(43,41,29)" stroke="rgb(43,41,29)" stroke-width="1" opacity="0.39215686274509803" d="M 202.5 93 L 206 98.5 L 204 99 L 202.5 93 Z " />
<path fill="rgb(43,41,29)" stroke="rgb(43,41,29)" stroke-width="1" opacity="0.39215686274509803" d="M 142.5 94 L 141.5 96 L 139.5 97 L 140.5 95 L 142.5 94 Z " />
<path fill="rgb(43,41,29)" stroke="rgb(43,41,29)" stroke-width="1" opacity="0.39215686274509803" d="M 195.5 95 Q 197.8 94.3 197 96.5 L 195.5 95 Z " />
<path fill="rgb(43,41,29)" stroke="rgb(43,41,29)" stroke-width="1" opacity="0.39215686274509803" d="M 197.5 98 L 199 100.5 L 198 100.5 L 197.5 98 Z " />
<path fill="rgb(43,41,29)" stroke="rgb(43,41,29)" stroke-width="1" opacity="0.39215686274509803" d="M 132.5 99 L 133 100.5 L 129.5 103 L 130.5 101 Q 133 101.7 132.5 99 Z " />
<path fill="rgb(43,41,29)" stroke="rgb(43,41,29)" stroke-width="1" opacity="0.39215686274509803" d="M 159.5 99 L 160 100.5 L 158 101.5 L 159.5 99 Z " />
<path fill="rgb(43,41,29)" stroke="rgb(43,41,29)" stroke-width="1" opacity="0.39215686274509803" d="M 45.5 102 Q 48.3 103.3 46 104.5 L 44.5 108 L 44 105.5 Q 47.1 103.8 45.5 102 Z " />
<path fill="rgb(43,41,29)" stroke="rgb(43,41,29)" stroke-width="1" opacity="0.39215686274509803" d="M 127.5 103 L 126.5 105 L 127.5 103 Z " />
<path fill="rgb(43,41,29)" stroke="rgb(43,41,29)" stroke-width="1" opacity="0.39215686274509803" d="M 157.5 103 L 158 104.5 L 155.5 108 L 156 106.5 L 157.5 103 Z " />
<path fill="rgb(43,41,29)" stroke="rgb(43,41,29)" stroke-width="1" opacity="0.39215686274509803" d="M 124.5 104 L 122.5 107 L 124.5 104 Z " />
<path fill="rgb(43,41,29)" stroke="rgb(43,41,29)" stroke-width="1" opacity="0.39215686274509803" d="M 200.5 107 Q 202.8 106.3 202 108.5 L 200.5 107 Z " />
<path fill="rgb(43,41,29)" stroke="rgb(43,41,29)" stroke-width="1" opacity="0.39215686274509803" d="M 118.5 108 L 117.5 110 L 118.5 108 Z " />
<path fill="rgb(43,41,29)" stroke="rgb(43,41,29)" stroke-width="1" opacity="0.39215686274509803" d="M 36.5 109 L 37 113.5 L 36 113.5 L 36.5 109 Z " />
<path fill="rgb(43,41,29)" stroke="rgb(43,41,29)" stroke-width="1" opacity="0.39215686274509803" d="M 154.5 109 L 154 110.5 L 153.5 112 L 153 110.5 L 154.5 109 Z " />
<path fill="rgb(43,41,29)" stroke="rgb(43,41,29)" stroke-width="1" opacity="0.39215686274509803" d="M 113.5 111 L 112.5 113 L 113.5 111 Z " />
<path fill="rgb(43,41,29)" stroke="rgb(43,41,29)" stroke-width="1" opacity="0.39215686274509803" d="M 209.5 111 L 211 115.5 L 209 114.5 L 209.5 111 Z " />
<path fill="rgb(43,41,29)" stroke="rgb(43,41,29)" stroke-width="1" opacity="0.39215686274509803" d="M 42.5 112 L 43 114.5 L 42 114.5 L 42.5 112 Z " />
<path fill="rgb(43,41,29)" stroke="rgb(43,41,29)" stroke-width="1" opacity="0.39215686274509803" d="M 41.5 116 L 42 117.5 Q 40.6 120.3 36 119 L 36.5 117 L 41 118 L 41.5 116 Z " />
<path fill="rgb(43,41,29)" stroke="rgb(43,41,29)" stroke-width="1" opacity="0.39215686274509803" d="M 105.5 116 L 104.5 118 Q 101.5 117.1 103 121.5 L 102 121.5 Q 101.3 117.8 103.5 117 L 105.5 116 Z " />
<path fill="rgb(43,41,29)" stroke="rgb(43,41,29)" stroke-width="1" opacity="0.39215686274509803" d="M 204.5 117 L 208 118.5 L 205.5 119 L 204.5 117 Z " />
<path fill="rgb(43,41,29)" stroke="rgb(43,41,29)" stroke-width="1" opacity="0.39215686274509803" d="M 115.5 119 Q 121.3 117.8 122.5 121 L 123 119 L 132 123 L 133 125.5 L 129.5 126 L 130 124.5 Q 130.8 122.3 128.5 123 L 126.5 124 L 121.5 122 L 121.5 123 L 123 123.5 L 121.5 124 L 113.5 121 L 115 123.5 L 114.5 125 L 112 121.5 L 115.5 119 Z M 119 121 L 119 122 L 121 122 L 119 121 Z M 126 121 Q 125 124 128 123 Q 129 120 126 121 Z " />
<path fill="rgb(43,41,29)" stroke="rgb(43,41,29)" stroke-width="1" opacity="0.39215686274509803" d="M 149.5 119 L 150 120.5 L 148 121.5 L 149.5 119 Z " />
<path fill="rgb(43,41,29)" stroke="rgb(43,41,29)" stroke-width="1" opacity="0.39215686274509803" d="M 110.5 122 L 113.5 127 L 118.5 125 L 118.5 126 L 114 127 L 111 132.5 L 111 135.5 L 113.5 139 L 115.5 138 L 116.5 141 L 120.5 142 L 128 136.5 Q 128.6 130.3 126 128 L 120 125.5 L 122.5 125 L 125 125.5 L 126.5 128 Q 127.7 125.8 129 128.5 L 128 131.5 L 129 136.5 L 125.5 141 Q 123.2 143.7 117.5 143 L 111 138.5 L 110 132.5 L 113 127.5 L 112 125 L 109.5 126 L 108 125.5 L 104.5 132 L 104 130.5 L 110.5 122 Z " />
<path fill="rgb(43,41,29)" stroke="rgb(43,41,29)" stroke-width="1" opacity="0.39215686274509803" d="M 147.5 123 L 148 124.5 L 146 125.5 L 147.5 123 Z " />
<path fill="rgb(43,41,29)" stroke="rgb(43,41,29)" stroke-width="1" opacity="0.39215686274509803" d="M 44.5 124 L 49 124 L 49 136.5 L 48 136.5 L 48 126.5 L 46.5 125 L 36.5 127 L 27.5 127 L 27.5 126 L 35.5 126 L 44.5 124 Z " />
<path fill="rgb(43,41,29)" stroke="rgb(43,41,29)" stroke-width="1" opacity="0.39215686274509803" d="M 103.5 124 L 104 126.5 L 103 126.5 L 103.5 124 Z " />
<path fill="rgb(43,41,29)" stroke="rgb(43,41,29)" stroke-width="1" opacity="0.39215686274509803" d="M 197.5 125 L 208 125.5 L 197.5 126 L 197.5 125 Z " />
<path fill="rgb(43,41,29)" stroke="rgb(43,41,29)" stroke-width="1" opacity="0.39215686274509803" d="M 210.5 126 L 218 126.5 L 210.5 127 L 210.5 126 Z " />
<path fill="rgb(43,41,29)" stroke="rgb(43,41,29)" stroke-width="1" opacity="0.39215686274509803" d="M 23.5 127 L 26 127.5 L 23.5 128 L 23.5 127 Z " />
<path fill="rgb(43,41,29)" stroke="rgb(43,41,29)" stroke-width="1" opacity="0.39215686274509803" d="M 130 127 Q 135.6 124.8 134 130.5 L 135 135.5 L 133.5 140 Q 130.8 138.8 133 137.5 L 134 134.5 L 132.5 128 L 130 129 L 130 127 Z " />
<path fill="rgb(43,41,29)" stroke="rgb(43,41,29)" stroke-width="1" opacity="0.39215686274509803" d="M 196.5 127 L 197 132.5 L 196 132.5 L 196.5 127 Z " />
<path fill="rgb(43,41,29)" stroke="rgb(43,41,29)" stroke-width="1" opacity="0.39215686274509803" d="M 220.5 127 L 225 127.5 L 220.5 128 L 220.5 127 Z " />
<path fill="rgb(43,41,29)" stroke="rgb(43,41,29)" stroke-width="1" opacity="0.39215686274509803" d="M 15.5 128 L 19 128.5 L 15.5 129 L 15.5 128 Z " />
<path fill="rgb(43,41,29)" stroke="rgb(43,41,29)" stroke-width="1" opacity="0.39215686274509803" d="M 12.5 129 L 12 130.5 L 13 132.5 L 11.5 133 Q 8 131 12.5 129 Z " />
<path fill="rgb(43,41,29)" stroke="rgb(43,41,29)" stroke-width="1" opacity="0.39215686274509803" d="M 231.5 129 Q 235 131 230.5 133 L 231.5 129 Z " />
<path fill="rgb(43,41,29)" stroke="rgb(43,41,29)" stroke-width="1" opacity="0.39215686274509803" d="M 98.5 131 Q 100.8 130.3 100 132.5 L 101 134.5 L 100 134.5 L 98.5 132 L 92.5 143 L 93 141.5 L 98.5 131 Z " />
<path fill="rgb(43,41,29)" stroke="rgb(43,41,29)" stroke-width="1" opacity="0.39215686274509803" d="M 14.5 133 L 28 134 L 27.5 136 L 26.5 135 L 14.5 134 L 14.5 133 Z " />
<path fill="rgb(43,41,29)" stroke="rgb(43,41,29)" stroke-width="1" opacity="0.39215686274509803" d="M 142.5 133 L 143 134.5 L 139.5 139 L 140 137.5 L 142.5 133 Z " />
<path fill="rgb(43,41,29)" stroke="rgb(43,41,29)" stroke-width="1" opacity="0.39215686274509803" d="M 224.5 133 L 229 133.5 L 220.5 135 L 220.5 134 L 224.5 133 Z " />
<path fill="rgb(43,41,29)" stroke="rgb(43,41,29)" stroke-width="1" opacity="0.39215686274509803" d="M 196.5 134 L 197 136.5 L 196 136.5 L 196.5 134 Z " />
<path fill="rgb(43,41,29)" stroke="rgb(43,41,29)" stroke-width="1" opacity="0.39215686274509803" d="M 216.5 134 L 219 134.5 L 216.5 135 L 216.5 134 Z " />
<path fill="rgb(43,41,29)" stroke="rgb(43,41,29)" stroke-width="1" opacity="0.39215686274509803" d="M 34.5 135 Q 37.1 134.3 36 137 L 32 136.5 L 34.5 135 Z " />
<path fill="rgb(43,41,29)" stroke="rgb(43,41,29)" stroke-width="1" opacity="0.39215686274509803" d="M 42.5 136 Q 44.8 135.3 44 137.5 L 42.5 136 Z " />
<path fill="rgb(43,41,29)" stroke="rgb(43,41,29)" stroke-width="1" opacity="0.39215686274509803" d="M 101.5 136 L 109.5 146 L 116 149.5 L 114.5 150 L 105 142.5 L 101.5 136 Z " />
<path fill="rgb(43,41,29)" stroke="rgb(43,41,29)" stroke-width="1" opacity="0.39215686274509803" d="M 131.5 140 Q 135 142 130.5 144 L 131.5 140 Z " />
<path fill="rgb(43,41,29)" stroke="rgb(43,41,29)" stroke-width="1" opacity="0.39215686274509803" d="M 138.5 140 L 139 141.5 L 134.5 148 L 131 147.5 L 136 145.5 L 138.5 140 Z " />
<path fill="rgb(43,41,29)" stroke="rgb(43,41,29)" stroke-width="1" opacity="0.39215686274509803" d="M 37.5 142 L 42 144.5 L 40.5 144 Q 36.8 143.3 36 145.5 L 35.5 147 L 35 144.5 L 37.5 142 Z " />
<path fill="rgb(43,41,29)" stroke="rgb(43,41,29)" stroke-width="1" opacity="0.39215686274509803" d="M 207.5 142 L 211 143 L 210.5 145 L 207.5 142 Z " />
<path fill="rgb(43,41,29)" stroke="rgb(43,41,29)" stroke-width="1" opacity="0.39215686274509803" d="M 91.5 144 L 92 145.5 L 83.5 160 L 83 158.5 L 91.5 144 Z " />
<path fill="rgb(43,41,29)" stroke="rgb(43,41,29)" stroke-width="1" opacity="0.39215686274509803" d="M 127.5 145 L 129 147.5 L 127.5 148 Q 124.5 146.5 127.5 145 Z " />
<path fill="rgb(43,41,29)" stroke="rgb(43,41,29)" stroke-width="1" opacity="0.39215686274509803" d="M 210.5 146 L 211 149.5 L 208.5 156 L 208 152.5 L 210.5 146 Z " />
<path fill="rgb(43,41,29)" stroke="rgb(43,41,29)" stroke-width="1" opacity="0.39215686274509803" d="M 36.5 148 L 37 151.5 L 36 151.5 L 36.5 148 Z " />
<path fill="rgb(43,41,29)" stroke="rgb(43,41,29)" stroke-width="1" opacity="0.39215686274509803" d="M 117.5 150 L 122 151.5 L 82.5 175 L 83.5 173 L 109.5 159 L 120 151.5 Q 116.7 151.6 117.5 150 Z " />
<path fill="rgb(43,41,29)" stroke="rgb(43,41,29)" stroke-width="1" opacity="0.39215686274509803" d="M 43.5 151 L 45 154.5 L 43 153.5 L 43.5 151 Z " />
<path fill="rgb(43,41,29)" stroke="rgb(43,41,29)" stroke-width="1" opacity="0.39215686274509803" d="M 201.5 153 L 202 155.5 L 201 155.5 L 201.5 153 Z " />
<path fill="rgb(43,41,29)" stroke="rgb(43,41,29)" stroke-width="1" opacity="0.39215686274509803" d="M 45.5 158 L 46.5 160 Q 43.7 160.7 45.5 158 Z " />
<path fill="rgb(43,41,29)" stroke="rgb(43,41,29)" stroke-width="1" opacity="0.39215686274509803" d="M 46.5 161 L 48 163.5 L 47 163.5 L 46.5 161 Z " />
<path fill="rgb(43,41,29)" stroke="rgb(43,41,29)" stroke-width="1" opacity="0.39215686274509803" d="M 199.5 161 L 199 162.5 L 198.5 164 L 198 162.5 L 199.5 161 Z " />
<path fill="rgb(43,41,29)" stroke="rgb(43,41,29)" stroke-width="1" opacity="0.39215686274509803" d="M 81.5 163 L 81 164.5 L 74 176.5 Q 75.3 179.3 76.5 177 L 78.5 176 L 77.5 178 L 74.5 179 L 73 176.5 L 81.5 163 Z " />
<path fill="rgb(43,41,29)" stroke="rgb(43,41,29)" stroke-width="1" opacity="0.39215686274509803" d="M 204.5 164 L 205 166.5 L 203 167.5 L 204.5 164 Z " />
<path fill="rgb(43,41,29)" stroke="rgb(43,41,29)" stroke-width="1" opacity="0.39215686274509803" d="M 197.5 165 L 197 166.5 L 196.5 168 L 196 166.5 L 197.5 165 Z " />
<path fill="rgb(43,41,29)" stroke="rgb(43,41,29)" stroke-width="1" opacity="0.39215686274509803" d="M 42.5 167 L 44 169.5 L 42 168.5 L 42.5 167 Z " />
<path fill="rgb(43,41,29)" stroke="rgb(43,41,29)" stroke-width="1" opacity="0.39215686274509803" d="M 202.5 169 L 202 170.5 L 201.5 173 L 201 170.5 L 202.5 169 Z " />
<path fill="rgb(43,41,29)" stroke="rgb(43,41,29)" stroke-width="1" opacity="0.39215686274509803" d="M 51.5 171 L 56 177.5 L 54 176.5 L 51.5 171 Z " />
<path fill="rgb(43,41,29)" stroke="rgb(43,41,29)" stroke-width="1" opacity="0.39215686274509803" d="M 45.5 174 Q 47.8 173.3 47 175.5 L 50 179.5 L 47 177.5 L 45.5 174 Z " />
<path fill="rgb(43,41,29)" stroke="rgb(43,41,29)" stroke-width="1" opacity="0.39215686274509803" d="M 199.5 174 L 199 175.5 L 195 181.5 L 195.5 183 Q 191.7 180.7 197 178.5 L 199.5 174 Z " />
<path fill="rgb(43,41,29)" stroke="rgb(43,41,29)" stroke-width="1" opacity="0.39215686274509803" d="M 188.5 178 L 189 179.5 L 184 183.5 L 188.5 178 Z " />
<path fill="rgb(43,41,29)" stroke="rgb(43,41,29)" stroke-width="1" opacity="0.39215686274509803" d="M 58.5 181 L 61.5 185 L 58.5 181 Z " />
<path fill="rgb(43,41,29)" stroke="rgb(43,41,29)" stroke-width="1" opacity="0.39215686274509803" d="M 51.5 182 L 52.5 184 L 51.5 182 Z " />
<path fill="rgb(43,41,29)" stroke="rgb(43,41,29)" stroke-width="1" opacity="0.39215686274509803" d="M 193.5 183 L 192 185.5 Q 192.8 187.8 190.5 187 L 181 195.5 L 193.5 183 Z " />
<path fill="rgb(43,41,29)" stroke="rgb(43,41,29)" stroke-width="1" opacity="0.39215686274509803" d="M 63.5 186 L 64.5 188 L 63.5 186 Z " />
<path fill="rgb(43,41,29)" stroke="rgb(43,41,29)" stroke-width="1" opacity="0.39215686274509803" d="M 56.5 188 L 59.5 192 L 56.5 188 Z " />
<path fill="rgb(43,41,29)" stroke="rgb(43,41,29)" stroke-width="1" opacity="0.39215686274509803" d="M 178.5 189 L 175.5 193 L 178.5 189 Z " />
<path fill="rgb(43,41,29)" stroke="rgb(43,41,29)" stroke-width="1" opacity="0.39215686274509803" d="M 67.5 190 L 70 191.5 L 68.5 192 L 67.5 190 Z " />
<path fill="rgb(43,41,29)" stroke="rgb(43,41,29)" stroke-width="1" opacity="0.39215686274509803" d="M 61.5 193 L 62.5 195 L 61.5 193 Z " />
<path fill="rgb(43,41,29)" stroke="rgb(43,41,29)" stroke-width="1" opacity="0.39215686274509803" d="M 172.5 194 L 170.5 197 L 169 196.5 L 172.5 194 Z " />
<path fill="rgb(43,41,29)" stroke="rgb(43,41,29)" stroke-width="1" opacity="0.39215686274509803" d="M 73.5 195 L 77 197.5 L 75.5 197 L 73.5 195 Z " />
<path fill="rgb(43,41,29)" stroke="rgb(43,41,29)" stroke-width="1" opacity="0.39215686274509803" d="M 167.5 197 L 165.5 200 L 167.5 197 Z " />
<path fill="rgb(43,41,29)" stroke="rgb(43,41,29)" stroke-width="1" opacity="0.39215686274509803" d="M 78.5 198 L 79.5 200 L 78.5 198 Z " />
<path fill="rgb(43,41,29)" stroke="rgb(43,41,29)" stroke-width="1" opacity="0.39215686274509803" d="M 177.5 198 L 176.5 200 L 177.5 198 Z " />
<path fill="rgb(43,41,29)" stroke="rgb(43,41,29)" stroke-width="1" opacity="0.39215686274509803" d="M 70.5 200 L 72.5 203 L 70.5 200 Z " />
<path fill="rgb(43,41,29)" stroke="rgb(43,41,29)" stroke-width="1" opacity="0.39215686274509803" d="M 118.5 201 L 128.5 201 L 130 202.5 L 129.5 210 L 129 202 L 118.5 202 L 117.5 203 L 118.5 201 Z " />
<path fill="rgb(43,41,29)" stroke="rgb(43,41,29)" stroke-width="1" opacity="0.39215686274509803" d="M 160.5 201 L 162 201.5 L 157.5 204 L 158.5 202 L 160.5 201 Z " />
<path fill="rgb(43,41,29)" stroke="rgb(43,41,29)" stroke-width="1" opacity="0.39215686274509803" d="M 173.5 201 L 171.5 204 L 168.5 205 L 168.5 204 L 173.5 201 Z " />
<path fill="rgb(43,41,29)" stroke="rgb(43,41,29)" stroke-width="1" opacity="0.39215686274509803" d="M 74.5 203 L 77 204.5 L 75.5 205 L 74.5 203 Z " />
<path fill="rgb(43,41,29)" stroke="rgb(43,41,29)" stroke-width="1" opacity="0.39215686274509803" d="M 117.5 204 L 118 206.5 L 117 206.5 L 117.5 204 Z " />
<path fill="rgb(43,41,29)" stroke="rgb(43,41,29)" stroke-width="1" opacity="0.39215686274509803" d="M 153 204 L 156 204.5 L 153.5 206 L 153 204 Z " />
<path fill="rgb(43,41,29)" stroke="rgb(43,41,29)" stroke-width="1" opacity="0.39215686274509803" d="M 148.5 206 L 151 206.5 L 146.5 208 L 146.5 207 L 148.5 206 Z " />
<path fill="rgb(43,41,29)" stroke="rgb(43,41,29)" stroke-width="1" opacity="0.39215686274509803" d="M 81.5 207 L 85 208 L 84.5 210 L 81.5 207 Z " />
<path fill="rgb(43,41,29)" stroke="rgb(43,41,29)" stroke-width="1" opacity="0.39215686274509803" d="M 98.5 207 L 102 208.5 L 100.5 209 L 98.5 207 Z " />
<path fill="rgb(43,41,29)" stroke="rgb(43,41,29)" stroke-width="1" opacity="0.39215686274509803" d="M 162.5 207 L 164 207.5 L 161.5 209 L 162.5 207 Z " />
<path fill="rgb(43,41,29)" stroke="rgb(43,41,29)" stroke-width="1" opacity="0.39215686274509803" d="M 107.5 210 Q 110.9 209.1 109 214.5 L 108 214.5 L 107.5 210 Z " />
<path fill="rgb(43,41,29)" stroke="rgb(43,41,29)" stroke-width="1" opacity="0.39215686274509803" d="M 128.5 211 L 129 216.5 L 128 216.5 L 128.5 211 Z " />
<path fill="rgb(43,41,29)" stroke="rgb(43,41,29)" stroke-width="1" opacity="0.39215686274509803" d="M 136.5 211 L 138 214.5 L 136 213.5 L 136.5 211 Z " />
<path fill="rgb(43,41,29)" stroke="rgb(43,41,29)" stroke-width="1" opacity="0.39215686274509803" d="M 100.5 214 Q 104.3 213.3 105 215.5 L 103.5 216 L 100.5 215 L 100.5 214 Z " />
<path fill="rgb(43,41,29)" stroke="rgb(43,41,29)" stroke-width="1" opacity="0.39215686274509803" d="M 143.5 214 L 146 214.5 L 143.5 215 L 143.5 214 Z " />
<path fill="rgb(43,41,29)" stroke="rgb(43,41,29)" stroke-width="1" opacity="0.39215686274509803" d="M 119.5 218 L 120 221.5 L 119 221.5 L 119.5 218 Z " />
<path fill="rgb(43,41,29)" stroke="rgb(43,41,29)" stroke-width="1" opacity="0.39215686274509803" d="M 127.5 220 L 128 223.5 L 127 223.5 L 127.5 220 Z " />
<path fill="rgb(43,41,29)" stroke="rgb(43,41,29)" stroke-width="1" opacity="0.39215686274509803" d="M 120.5 226 L 121 233.5 L 120 233.5 L 120.5 226 Z " />
<path fill="rgb(43,41,29)" stroke="rgb(43,41,29)" stroke-width="1" opacity="0.39215686274509803" d="M 126.5 227 L 127 229.5 L 126 229.5 L 126.5 227 Z " />
<path fill="rgb(43,41,29)" stroke="rgb(43,41,29)" stroke-width="1" opacity="0.39215686274509803" d="M 122.5 239 L 125 239.5 L 122.5 240 L 122.5 239 Z " />
<path fill="rgb(0,0,0)" stroke="rgb(0,0,0)" stroke-width="1" opacity="0" d="M 0 0 L 620 0 L 620 250 L 0 250 L 0 0 Z M 123 20 L 120 23 L 120 34 L 119 35 L 120 39 L 117 57 L 120 58 L 122 57 Q 127 56 129 58 L 131 57 L 126 26 L 126 24 L 125 22 L 123 20 Z M 322 43 L 320 45 L 311 46 L 307 49 L 313 51 L 313 98 L 314 99 L 313 107 Q 317 108 319 105 L 319 107 L 321 106 L 327 108 L 338 108 L 347 104 L 355 92 L 355 81 L 350 71 L 341 66 Q 331 65 328 69 Q 324 68 325 71 L 323 70 L 323 50 L 324 49 L 323 47 L 323 45 Q 324 42 322 43 Z M 458 43 L 458 45 L 449 47 Q 443 46 445 50 L 451 51 L 451 102 L 449 104 L 447 103 L 445 107 L 467 107 L 467 106 L 461 102 L 461 48 L 462 47 L 461 45 Q 462 42 458 43 Z M 103 45 L 89 51 L 86 51 L 76 57 Q 73 56 74 59 L 68 62 L 66 65 L 65 64 L 56 75 L 53 76 L 43 92 L 36 110 L 36 119 L 41 119 L 46 106 L 45 104 L 49 95 L 51 95 L 51 94 L 51 92 L 60 79 Q 62 74 67 74 L 68 70 L 75 67 L 76 64 L 83 60 L 102 52 L 105 52 L 108 50 Q 110 42 103 45 Z M 139 45 L 136 49 L 140 52 L 141 51 L 149 54 L 151 54 L 164 60 L 165 63 Q 172 63 175 69 Q 174 71 177 70 L 190 85 L 194 93 Q 197 94 195 96 L 200 106 L 200 108 L 206 119 L 210 118 L 211 116 L 207 103 L 205 101 L 206 99 L 202 92 Q 198 90 201 89 L 196 83 Q 197 79 194 80 L 190 74 L 186 71 L 185 67 L 182 66 L 163 52 L 147 46 L 139 45 Z M 276 48 Q 273 49 275 51 Q 276 53 274 52 L 274 54 L 272 54 L 266 71 L 266 73 L 262 79 Q 261 88 256 94 Q 257 97 255 96 L 255 98 L 253 101 Q 252 104 249 103 L 247 107 L 267 107 L 267 106 L 261 103 Q 260 95 264 91 L 265 88 L 285 88 L 291 102 L 287 104 L 285 107 L 307 107 L 308 106 L 303 102 L 296 87 L 296 85 L 295 84 L 295 83 L 291 75 L 291 73 L 285 62 L 281 50 Q 280 47 276 48 Z M 532 55 L 529 56 L 526 65 L 517 71 L 519 73 L 522 72 L 523 74 L 523 96 Q 525 97 524 102 L 524 104 L 530 108 Q 538 109 542 106 L 545 103 L 544 101 L 536 102 L 533 98 L 533 73 L 535 72 L 537 72 L 539 73 Q 540 71 545 72 L 546 71 L 545 67 L 533 68 L 533 57 L 532 55 Z M 373 66 L 369 68 L 367 68 L 366 70 L 362 72 L 361 75 Q 359 82 363 85 Q 362 87 365 86 L 365 88 L 382 94 Q 385 96 385 101 L 380 104 L 371 103 Q 365 101 364 95 L 361 93 L 360 96 L 361 104 Q 363 108 365 105 L 371 108 Q 383 110 389 105 L 393 99 Q 394 90 390 88 Q 388 83 387 86 L 375 80 L 372 80 L 369 78 L 369 76 L 370 74 L 374 71 L 382 72 L 387 79 Q 386 81 389 80 L 390 79 L 390 70 L 381 66 L 373 66 Z M 416 66 L 405 72 L 401 78 L 399 82 Q 397 93 401 99 Q 406 105 415 108 L 428 108 L 438 102 L 443 95 L 444 91 Q 444 81 440 76 Q 434 65 416 66 Z M 481 66 L 474 68 L 472 68 L 472 69 L 468 69 L 468 71 L 472 72 L 474 75 L 474 100 L 475 103 L 483 108 Q 495 110 500 103 Q 502 102 501 105 Q 502 108 507 107 L 509 107 L 516 107 L 516 106 L 511 102 L 512 99 L 511 96 L 511 81 L 512 80 Q 513 70 511 66 L 497 69 L 495 71 L 495 72 L 500 72 L 501 75 L 500 78 L 501 79 L 501 96 L 501 98 Q 500 102 494 101 L 491 102 L 489 101 L 487 101 L 484 98 L 484 68 L 481 66 Z M 565 66 L 557 70 L 550 79 Q 551 81 549 80 L 549 82 L 548 85 L 549 96 L 552 102 L 563 108 Q 576 110 582 104 L 586 99 Q 587 95 585 94 L 582 98 Q 579 97 580 100 L 575 102 Q 567 102 563 99 L 558 90 L 559 85 L 585 85 L 586 84 L 585 77 L 582 72 L 573 66 L 565 66 Z M 167 80 L 152 89 Q 150 92 149 90 L 135 99 L 133 99 L 132 101 L 128 103 L 125 106 L 124 105 L 102 119 L 105 132 L 108 126 L 116 120 L 117 121 L 116 121 L 116 122 L 119 121 L 125 123 Q 127 124 126 121 L 130 123 L 129 126 L 133 126 L 133 127 Q 129 126 130 129 L 133 128 L 134 135 L 132 139 L 133 141 L 126 147 Q 128 150 135 148 L 142 137 L 168 84 Q 169 79 167 80 Z M 119 122 L 119 123 L 121 123 L 119 122 Z M 112 123 L 110 125 L 112 125 L 112 123 Z M 45 124 L 36 126 L 28 126 L 23 128 L 16 128 L 10 132 L 15 134 L 27 135 L 29 135 L 34 136 L 32 137 L 36 137 L 38 137 L 42 136 L 46 138 L 49 137 L 49 124 L 45 124 Z M 117 125 L 115 126 L 110 133 L 111 139 L 118 143 Q 123 144 126 141 L 129 137 Q 129 129 125 126 L 124 126 Q 122 124 117 125 Z M 197 125 L 196 128 Q 195 132 197 134 L 196 137 L 199 138 L 206 136 L 211 137 L 211 135 L 215 136 L 219 135 L 221 135 L 229 134 L 233 131 L 230 128 L 225 127 L 197 125 Z M 472 126 L 462 130 Q 457 128 458 132 L 464 134 L 463 136 L 464 137 L 464 183 L 464 185 L 457 188 L 458 190 L 470 190 L 471 189 Q 472 192 479 190 L 480 188 L 474 185 L 474 131 L 475 128 L 472 126 Z M 99 131 L 77 172 L 73 177 L 75 179 L 110 160 L 122 152 L 110 146 L 100 133 Q 101 130 99 131 Z M 248 132 L 247 141 L 247 143 Q 246 147 250 148 L 252 140 L 259 137 L 267 136 L 267 183 L 266 185 Q 265 187 262 186 L 260 190 L 285 190 L 285 186 L 283 185 L 281 186 L 277 181 L 277 137 L 279 137 L 283 136 L 291 139 L 297 148 L 298 144 L 297 138 L 297 136 L 298 134 L 297 132 L 248 132 Z M 38 142 L 35 145 L 38 158 L 44 172 Q 47 173 45 175 L 54 186 Q 53 188 56 187 L 60 192 Q 62 191 61 194 Q 70 203 84 209 L 87 210 Q 89 209 88 212 L 90 211 L 104 216 L 106 215 L 109 215 L 109 210 L 91 205 Q 81 202 75 195 L 73 195 L 70 191 L 67 190 L 65 188 L 62 186 L 50 170 L 48 163 Q 44 161 47 160 L 45 157 L 45 155 L 42 145 L 38 142 Z M 208 142 L 205 143 Q 201 150 200 161 L 195 170 Q 196 172 193 171 L 191 177 L 188 178 L 182 187 Q 179 186 180 189 L 157 204 Q 152 203 153 206 L 149 206 L 136 211 L 138 215 L 146 215 L 172 204 L 192 187 L 200 175 Q 199 172 202 173 L 211 150 L 210 146 L 211 143 L 208 142 Z M 314 148 L 312 150 Q 307 149 306 151 Q 299 149 301 154 L 306 157 L 305 159 L 305 179 L 306 180 L 305 186 Q 300 185 299 189 Q 300 191 302 189 L 303 190 L 320 190 L 321 188 L 318 186 L 315 180 L 315 178 L 316 176 L 316 167 L 315 166 L 319 160 L 321 157 L 323 155 L 326 159 Q 325 161 329 160 L 332 156 L 331 149 L 327 148 Q 324 147 325 150 L 324 149 L 322 150 L 316 158 L 315 158 L 316 153 L 314 148 Z M 354 148 L 342 152 Q 337 154 337 161 L 342 164 L 346 162 Q 348 161 347 156 L 351 153 L 358 155 L 359 160 L 358 163 L 359 165 L 348 169 L 346 169 L 335 178 L 336 183 L 335 185 L 337 188 L 341 190 L 346 190 L 346 192 Q 350 193 349 190 L 352 191 L 358 187 L 360 187 L 365 191 Q 371 190 375 187 Q 376 184 372 185 L 370 185 L 369 161 L 367 155 L 362 150 L 354 148 Z M 391 149 L 390 150 L 374 150 L 373 152 L 377 154 L 386 171 L 388 178 Q 391 179 389 181 L 391 181 L 394 190 L 398 192 L 409 166 L 411 162 Q 410 159 413 160 Q 413 155 417 153 Q 421 154 419 149 L 416 150 Q 407 151 403 149 L 402 152 L 407 155 L 406 162 L 402 168 L 402 171 L 400 175 L 396 174 L 389 156 Q 388 153 392 154 L 394 150 L 391 149 Z M 434 149 L 424 153 L 420 160 L 420 162 Q 417 166 418 175 L 418 177 L 424 185 Q 426 184 425 187 L 433 190 L 435 190 L 437 191 L 448 189 L 452 186 L 456 180 L 455 176 Q 452 175 453 178 L 446 184 L 441 185 L 434 182 L 430 179 Q 427 174 428 167 L 450 167 L 451 168 L 455 167 L 454 159 L 451 155 L 446 150 L 434 149 Z M 119 201 L 117 203 L 119 213 L 119 222 L 120 223 L 120 234 L 122 239 Q 121 241 125 240 L 128 224 L 129 211 L 130 210 L 130 203 L 129 201 L 119 201 Z " />
<path fill="rgb(0,0,0)" stroke="rgb(0,0,0)" stroke-width="1" opacity="0" d="M 121.5 119 Q 123.8 118.3 123 120.5 L 121.5 119 Z " />
</svg>